<svg xmlns="http://www.w3.org/2000/svg" width="9.758" height="9.707" viewBox="0 0 9.758 9.707">
  <g id="Grupo_101" data-name="Grupo 101" transform="translate(-459.264 -3349.175)">
    <path id="Caminho_21" data-name="Caminho 21" d="M4.8,9.541a4.77,4.77,0,1,1,4.8-4.77A4.79,4.79,0,0,1,4.8,9.541ZM4.8.6a4.174,4.174,0,1,0,4.2,4.174A4.189,4.189,0,0,0,4.8.6Z" transform="matrix(1, -0.017, 0.017, 1, 459.263, 3349.342)" fill="#fff"/>
    <path id="Caminho_22" data-name="Caminho 22" d="M2.4,4.771A2.385,2.385,0,1,1,4.112.717l-.429.417a1.789,1.789,0,1,0,0,2.5l.428.418A2.385,2.385,0,0,1,2.4,4.771Z" transform="matrix(1, -0.017, 0.017, 1, 461.703, 3351.685)" fill="#fff"/>
  </g>
</svg>
