<svg xmlns="http://www.w3.org/2000/svg" width="177" height="42" viewBox="0 0 177 42">
  <defs>
    <style>
      .cls-1, .cls-6 {
        fill: none;
      }

      .cls-1 {
        stroke: #f5f5f5;
      }

      .cls-2, .cls-3, .cls-4 {
        fill: #fff;
      }

      .cls-2 {
        stroke: #d99725;
      }

      .cls-2, .cls-3 {
        stroke-width: 0.123px;
      }

      .cls-3 {
        stroke: #707070;
      }

      .cls-5 {
        stroke: none;
      }
    </style>
  </defs>
  <g id="icones_social" transform="translate(-416 -4519)">
    <g id="Elipse_3" data-name="Elipse 3" class="cls-1" transform="translate(416 4519)">
      <ellipse class="cls-5" cx="21.5" cy="21" rx="21.5" ry="21"/>
      <ellipse class="cls-6" cx="21.5" cy="21" rx="21" ry="20.5"/>
    </g>
    <g id="Elipse_3-2" data-name="Elipse 3" class="cls-1" transform="translate(483 4519)">
      <ellipse class="cls-5" cx="21.5" cy="21" rx="21.5" ry="21"/>
      <ellipse class="cls-6" cx="21.5" cy="21" rx="21" ry="20.5"/>
    </g>
    <g id="facebook" transform="translate(431.74 4528.172)">
      <g id="Grupo_36" data-name="Grupo 36">
        <path id="Caminho_13" data-name="Caminho 13" class="cls-2" d="M23.064,8.045V5.12a1.463,1.463,0,0,1,1.463-1.463H25.99V0H23.064a4.388,4.388,0,0,0-4.388,4.388V8.045H15.75V11.7h2.926V23.4h4.388V11.7H25.99l1.463-3.657Z" transform="translate(-15.75)"/>
      </g>
    </g>
    <g id="Grupo_97" data-name="Grupo 97">
      <path id="Caminho_14" data-name="Caminho 14" class="cls-3" d="M14.4,0H5.343A5.349,5.349,0,0,0,0,5.343V14.4A5.349,5.349,0,0,0,5.343,19.74H14.4A5.349,5.349,0,0,0,19.739,14.4V5.343A5.349,5.349,0,0,0,14.4,0ZM9.87,15.267a5.4,5.4,0,1,1,5.4-5.4A5.4,5.4,0,0,1,9.87,15.267ZM15.4,5.745a1.595,1.595,0,1,1,1.6-1.595A1.6,1.6,0,0,1,15.4,5.745Zm0,0" transform="translate(494.495 4530.004)"/>
      <path id="Caminho_15" data-name="Caminho 15" class="cls-3" d="M22.207,17.967a4.24,4.24,0,1,0,4.24,4.24A4.245,4.245,0,0,0,22.207,17.967Zm0,0" transform="translate(482.157 4517.667)"/>
      <path id="Caminho_16" data-name="Caminho 16" class="cls-3" d="M48.179,11.85a.438.438,0,1,0,.438.438A.438.438,0,0,0,48.179,11.85Zm0,0" transform="translate(461.712 4521.868)"/>
    </g>
    <g id="Elipse_3-3" data-name="Elipse 3" class="cls-1" transform="translate(549 4519)">
      <ellipse class="cls-5" cx="22" cy="21" rx="22" ry="21"/>
      <ellipse class="cls-6" cx="22" cy="21" rx="21.5" ry="20.5"/>
    </g>
    <g id="Grupo_72" data-name="Grupo 72" transform="translate(560 4531)">
      <path id="Caminho_20" data-name="Caminho 20" class="cls-4" d="M23.07,50.219a9.86,9.86,0,0,1-2.725.747,4.7,4.7,0,0,0,2.081-2.614,9.452,9.452,0,0,1-3,1.145,4.729,4.729,0,0,0-8.181,3.234,4.87,4.87,0,0,0,.11,1.079,13.387,13.387,0,0,1-9.748-4.947A4.731,4.731,0,0,0,3.06,55.183,4.671,4.671,0,0,1,.923,54.6v.052A4.751,4.751,0,0,0,4.712,59.3a4.72,4.72,0,0,1-1.24.156,4.182,4.182,0,0,1-.9-.081A4.775,4.775,0,0,0,7,62.669a9.5,9.5,0,0,1-5.864,2.017A8.859,8.859,0,0,1,0,64.622a13.315,13.315,0,0,0,7.255,2.122A13.368,13.368,0,0,0,20.717,53.286c0-.209-.007-.411-.017-.611A9.435,9.435,0,0,0,23.07,50.219Z" transform="translate(0 -48)"/>
    </g>
  </g>
</svg>
