<svg xmlns="http://www.w3.org/2000/svg" width="31" height="29" viewBox="0 0 31 29">
  <g id="Grupo_99" data-name="Grupo 99" transform="translate(-343 -3197)">
    <g id="Elipse_3" data-name="Elipse 3" transform="translate(343 3197)" fill="none" stroke="#f5f5f5" stroke-width="1">
      <ellipse cx="15.5" cy="14.5" rx="15.5" ry="14.5" stroke="none"/>
      <ellipse cx="15.5" cy="14.5" rx="15" ry="14" fill="none"/>
    </g>
    <g id="Grupo_97" data-name="Grupo 97" transform="translate(351.721 3204.419)">
      <path id="Caminho_14" data-name="Caminho 14" d="M10.24,0H3.8A3.794,3.794,0,0,0,0,3.78v6.4a3.794,3.794,0,0,0,3.8,3.78H10.24a3.794,3.794,0,0,0,3.8-3.78V3.78A3.794,3.794,0,0,0,10.24,0ZM7.02,10.8a3.818,3.818,0,1,1,3.839-3.818A3.833,3.833,0,0,1,7.02,10.8Zm3.931-6.735a1.128,1.128,0,1,1,1.134-1.128A1.132,1.132,0,0,1,10.951,4.064Zm0,0" transform="translate(0 0)" fill="#fff" stroke="#707070" stroke-width="0.123"/>
      <path id="Caminho_15" data-name="Caminho 15" d="M20.983,17.967a3,3,0,1,0,3.016,3A3.011,3.011,0,0,0,20.983,17.967Zm0,0" transform="translate(-13.963 -13.985)" fill="#fff" stroke="#707070" stroke-width="0.123"/>
      <path id="Caminho_16" data-name="Caminho 16" d="M48.053,11.85a.31.31,0,1,0,.311.31A.311.311,0,0,0,48.053,11.85Zm0,0" transform="translate(-37.102 -9.223)" fill="#fff" stroke="#707070" stroke-width="0.123"/>
    </g>
  </g>
</svg>
