<svg xmlns="http://www.w3.org/2000/svg" width="31" height="31" viewBox="0 0 31 31">
  <g id="icone-contato-wpp" transform="translate(0.488)">
    <g id="Elipse_3" data-name="Elipse 3" transform="translate(-0.488)" fill="none" stroke="#d99725" stroke-width="1">
      <circle cx="15.5" cy="15.5" r="15.5" stroke="none"/>
      <circle cx="15.5" cy="15.5" r="15" fill="none"/>
    </g>
    <g id="whatsapp" transform="translate(8.527 8.498)">
      <g id="Grupo_61" data-name="Grupo 61">
        <path id="Caminho_18" data-name="Caminho 18" d="M6.629,0h0A6.623,6.623,0,0,0,1.262,10.512L.436,12.974l2.547-.814A6.626,6.626,0,1,0,6.629,0Zm3.856,9.359a1.87,1.87,0,0,1-1.3.935c-.346.074-.8.133-2.321-.5a8.3,8.3,0,0,1-3.3-2.914,3.785,3.785,0,0,1-.787-2,2.116,2.116,0,0,1,.678-1.613.963.963,0,0,1,.678-.238c.082,0,.156,0,.222.007.195.008.292.02.421.327.16.385.549,1.336.6,1.434a.394.394,0,0,1,.028.359,1.145,1.145,0,0,1-.215.3c-.1.113-.191.2-.288.32-.089.105-.191.218-.078.413A5.883,5.883,0,0,0,5.894,7.531a4.873,4.873,0,0,0,1.554.959.419.419,0,0,0,.467-.074,8.019,8.019,0,0,0,.518-.686.37.37,0,0,1,.476-.144c.179.062,1.126.53,1.321.627s.323.144.37.226A1.651,1.651,0,0,1,10.486,9.359Z" fill="#d99725"/>
      </g>
    </g>
  </g>
</svg>
