<svg xmlns="http://www.w3.org/2000/svg" width="31" height="29" viewBox="0 0 31 29">
  <g id="icone_wpp" transform="translate(-0.004)">
    <g id="Elipse_3" data-name="Elipse 3" transform="translate(0.004)" fill="none" stroke="#fff" stroke-width="1">
      <ellipse cx="15.5" cy="14.5" rx="15.5" ry="14.5" stroke="none"/>
      <ellipse cx="15.5" cy="14.5" rx="15" ry="14" fill="none"/>
    </g>
    <g id="whatsapp" transform="translate(9.058 8.088)">
      <g id="Grupo_61" data-name="Grupo 61">
        <path id="Caminho_18" data-name="Caminho 18" d="M6.667,0h0A6.653,6.653,0,0,0,0,6.629a6.555,6.555,0,0,0,1.269,3.885L.438,12.977,3,12.162A6.641,6.641,0,1,0,6.667,0Zm3.878,9.361a1.88,1.88,0,0,1-1.308.935c-.348.074-.8.133-2.335-.5A8.332,8.332,0,0,1,3.584,6.882a3.775,3.775,0,0,1-.792-2A2.111,2.111,0,0,1,3.474,3.27a.972.972,0,0,1,.682-.238c.082,0,.157,0,.223.007.2.008.294.02.423.327.161.385.552,1.337.6,1.434a.393.393,0,0,1,.028.359,1.146,1.146,0,0,1-.216.3c-.1.113-.192.2-.29.32-.09.105-.192.218-.078.413A5.889,5.889,0,0,0,5.927,7.533a4.906,4.906,0,0,0,1.563.959.423.423,0,0,0,.47-.074,8.024,8.024,0,0,0,.521-.686.373.373,0,0,1,.478-.144c.18.062,1.132.53,1.328.627s.325.144.372.226A1.642,1.642,0,0,1,10.545,9.361Z" fill="#fff"/>
      </g>
    </g>
  </g>
</svg>
