<svg xmlns="http://www.w3.org/2000/svg" width="30" height="29" viewBox="0 0 30 29">
  <g id="Grupo_100" data-name="Grupo 100" transform="translate(-391 -3197)">
    <g id="Elipse_3" data-name="Elipse 3" transform="translate(391 3197)" fill="none" stroke="#f5f5f5" stroke-width="1">
      <ellipse cx="15" cy="14.5" rx="15" ry="14.5" stroke="none"/>
      <ellipse cx="15" cy="14.5" rx="14.5" ry="14" fill="none"/>
    </g>
    <g id="Grupo_72" data-name="Grupo 72" transform="translate(398.313 3205.123)">
      <path id="Caminho_20" data-name="Caminho 20" d="M16.409,49.57a7.044,7.044,0,0,1-1.938.528,3.33,3.33,0,0,0,1.48-1.849,6.745,6.745,0,0,1-2.133.81A3.368,3.368,0,0,0,8,51.346a3.426,3.426,0,0,0,.078.763,9.539,9.539,0,0,1-6.934-3.5,3.334,3.334,0,0,0,1.034,4.471,3.336,3.336,0,0,1-1.52-.412v.037a3.365,3.365,0,0,0,2.7,3.287,3.375,3.375,0,0,1-.882.11,2.991,2.991,0,0,1-.637-.057,3.394,3.394,0,0,0,3.143,2.33A6.783,6.783,0,0,1,.805,59.8,6.336,6.336,0,0,1,0,59.758a9.509,9.509,0,0,0,5.161,1.5,9.481,9.481,0,0,0,9.575-9.52c0-.148-.005-.291-.012-.432A6.691,6.691,0,0,0,16.409,49.57Z" transform="translate(0 -48)" fill="#fff"/>
    </g>
  </g>
</svg>
