<svg xmlns="http://www.w3.org/2000/svg" width="69.421" height="72" viewBox="0 0 69.421 72">
  <defs>
    <style>
      .cls-1 {
        fill: #a8b3bc;
      }

      .cls-2 {
        fill: #d99725;
      }
    </style>
  </defs>
  <g id="Logotipo_Pégasu" data-name="Logotipo Pégasu" transform="translate(-0.03 -0.01)">
    <path id="Caminho_23" data-name="Caminho 23" class="cls-1" d="M606.533,436.05l-5.067-2.36a41.7,41.7,0,0,1,5.067-10.1Zm32.888,40.584h3.642v3.642h-3.642Zm-32.888-21.92h-6.647a42.215,42.215,0,0,1,.543-17.484l6.1,2.845Zm0,16.194a41.756,41.756,0,0,1-5.828-12.541h5.828Zm0,13.04H584.606V458.356h12.33a45.4,45.4,0,0,0,8.986,17.808c.2.244.4.488.612.728v7.044Zm3.642-36.57,7.183-3.351q.127,1.6.124,3.227a41.721,41.721,0,0,1-7.307,23.654Zm0-23.781a41.671,41.671,0,0,1,6.724,16.609l-6.717,3.133V423.589Zm0,60.352V476.9c.208-.24.412-.484.612-.729a45.4,45.4,0,0,0,10.352-28.921,46.618,46.618,0,0,0-.259-4.866l18.529-8.644v39.24h3.642V432.036h0v-1.5a1.61,1.61,0,0,0-2.291-1.457l-1.362.638-19.09,8.9a45.433,45.433,0,0,0-9.532-20.288h0q-1.162-1.413-2.44-2.735-1.271,1.322-2.437,2.735a45.532,45.532,0,0,0-7.762,13.8q-.612,1.737-1.093,3.529a45.642,45.642,0,0,0-1.486,11.583,46.22,46.22,0,0,0,.619,7.471H582.562a1.61,1.61,0,0,0-1.61,1.614v27.621H577.31v3.642h69.421v-3.642Z" transform="translate(-577.28 -415.58)"/>
    <path id="Caminho_24" data-name="Caminho 24" class="cls-2" d="M718.658,497.659v4.032l-10.968,5.1v-4.018l10.968-5.1Zm0-8.064v4.032l-10.968,5.1v-4.018l10.968-5.1Zm0-8.064v4.032l-10.968,5.1v-4.018l10.968-5.1Z" transform="translate(-660.17 -457.502)"/>
  </g>
</svg>
