<svg xmlns="http://www.w3.org/2000/svg" width="137.987" height="49.618" viewBox="0 0 137.987 49.618">
  <g id="logo_rodapé" transform="translate(0)">
    <path id="Caminho_23" data-name="Caminho 23" d="M597.56,429.69l-3.511-1.627a28.677,28.677,0,0,1,3.511-6.958Zm22.79,27.968h2.524v2.51H620.35Zm-22.79-15.106h-4.606a28.935,28.935,0,0,1,.376-12.049l4.23,1.96Zm0,11.16a28.7,28.7,0,0,1-4.038-8.642h4.038Zm0,8.986H582.366V445.062h8.544a31.223,31.223,0,0,0,6.227,12.272c.139.168.28.336.424.5v4.855Zm2.524-25.2,4.977-2.309q.088,1.1.086,2.224a28.64,28.64,0,0,1-5.063,16.3Zm0-16.389a28.632,28.632,0,0,1,4.659,11.446l-4.654,2.159V421.1Zm0,41.591v-4.86c.144-.166.285-.334.424-.5a31.184,31.184,0,0,0,7.173-19.931,31.926,31.926,0,0,0-.179-3.354l12.84-5.957v27.042h2.524V426.923h0v-1.037a1.108,1.108,0,0,0-.517-.935,1.121,1.121,0,0,0-1.071-.069l-.944.439-13.229,6.135a31.237,31.237,0,0,0-6.605-13.982h0q-.805-.974-1.691-1.885-.881.911-1.689,1.885a31.332,31.332,0,0,0-5.379,9.514q-.424,1.2-.757,2.432a31.29,31.29,0,0,0-1.03,7.982,31.688,31.688,0,0,0,.429,5.148H580.95a1.119,1.119,0,0,0-.79.326,1.106,1.106,0,0,0-.326.786V462.7H577.31v2.51h48.106V462.7Z" transform="translate(-577.31 -415.59)" fill="#273152"/>
    <path id="Caminho_24" data-name="Caminho 24" d="M715.29,492.645v2.779l-7.6,3.514v-2.769l7.6-3.514Zm0-5.557v2.779l-7.6,3.514v-2.769l7.6-3.514Zm0-5.557v2.779l-7.6,3.514v-2.769l7.6-3.514Z" transform="translate(-674.781 -464.978)" fill="#f2ece0"/>
    <path id="Caminho_25" data-name="Caminho 25" d="M787.29,590.59h2.31a.094.094,0,0,1,.076.038.053.053,0,0,1,0,.033.111.111,0,0,0,.013.038v.053a.614.614,0,0,1,0,.07v.073a.659.659,0,0,0,0,.073.615.615,0,0,1,0,.07.421.421,0,0,0,0,.07.112.112,0,0,1-.048.075.123.123,0,0,1-.071.02H788.1a.555.555,0,0,0-.093,0,.114.114,0,0,0-.06.02.1.1,0,0,0-.04.07.6.6,0,0,0,0,.1v.409a.078.078,0,0,0,.018.063.07.07,0,0,0,.035.04.115.115,0,0,0,.066.023h1.431a.143.143,0,0,1,.058.017.078.078,0,0,1,.033.058.37.37,0,0,1,0,.093.706.706,0,0,1,0,.1v.156a.139.139,0,0,1,0,.058.1.1,0,0,1-.038.06.134.134,0,0,1-.063.02h-1.3a.414.414,0,0,0-.1,0,.17.17,0,0,0-.076.028.128.128,0,0,0-.045.065.314.314,0,0,0,0,.05v.5a.616.616,0,0,0,0,.1.1.1,0,0,0,.04.068.057.057,0,0,0,.035.018.155.155,0,0,1,.045.013h1.577a.188.188,0,0,1,.066,0,.08.08,0,0,1,.05.053.178.178,0,0,1,.013.058.657.657,0,0,1,0,.07v.326a.088.088,0,0,1-.043.073.111.111,0,0,1-.073.023h-2.365a.1.1,0,0,1-.076-.045.14.14,0,0,1-.018-.075v-3.113a.1.1,0,0,1,.018-.065.114.114,0,0,1,.073-.048.024.024,0,0,1,.018,0,.027.027,0,0,0,.02,0Zm4.291.873a1.015,1.015,0,0,1,.477.08.686.686,0,0,1,.3.266.5.5,0,0,1,.053.111l.038.123a.387.387,0,0,1,0,.07.274.274,0,0,0,.013.065.08.08,0,0,0,0,.04,1.225,1.225,0,0,1,0,.136v1.5a.1.1,0,0,1-.068.108.271.271,0,0,1-.068,0h-.333a.651.651,0,0,1-.1,0,.088.088,0,0,1-.068-.04.125.125,0,0,1-.02-.073v-1.137a3.153,3.153,0,0,0-.015-.324.543.543,0,0,0-.086-.251.374.374,0,0,0-.2-.133.163.163,0,0,0-.05,0,.215.215,0,0,1-.053,0,.234.234,0,0,0-.061,0h-.088a.051.051,0,0,0-.028,0,.479.479,0,0,0-.177.075.433.433,0,0,0-.182.319,3.279,3.279,0,0,0-.028.469v.969a.152.152,0,0,1-.015.07.1.1,0,0,1-.076.063.965.965,0,0,1-.129,0h-.21a.768.768,0,0,1-.106,0,.1.1,0,0,1-.076-.033.18.18,0,0,1-.03-.123v-2.179a.108.108,0,0,1,.025-.07.067.067,0,0,1,.03-.023h.51a.083.083,0,0,1,.045.043.441.441,0,0,1,.02.068.051.051,0,0,1,0,.033.058.058,0,0,0,0,.028.092.092,0,0,0,.018.03l.02.012a.094.094,0,0,0,.086-.035.28.28,0,0,1,.073-.063,1.076,1.076,0,0,1,.285-.153.5.5,0,0,1,.088-.02h.1a.1.1,0,0,1,.043,0Zm3.761.09a.09.09,0,0,1,.036.078v2.139c0,.024,0,.049,0,.073v.211c-.012.045-.022.088-.03.128a.576.576,0,0,1-.038.11.9.9,0,0,1-.207.3.981.981,0,0,1-.308.2l-.106.038-.109.028a.513.513,0,0,1-.106.02l-.1.013h-.081a.083.083,0,0,1-.043,0h-.22a.107.107,0,0,1-.04,0,.389.389,0,0,0-.078,0,.327.327,0,0,1-.073,0h-.048a.3.3,0,0,1-.093-.023.519.519,0,0,1-.088-.03,1.317,1.317,0,0,1-.323-.191.688.688,0,0,1-.212-.311.07.07,0,0,1,0-.03.064.064,0,0,0,0-.023.1.1,0,0,1,0-.093.124.124,0,0,1,.076-.04.457.457,0,0,1,.106,0h.356a.16.16,0,0,1,.1.05l.058.083a.309.309,0,0,0,.043.048h0v.015a.55.55,0,0,0,.081.053.85.85,0,0,0,.1.043h.068a.4.4,0,0,1,.071,0h.053a.19.19,0,0,0,.086,0,.424.424,0,0,0,.081-.015.094.094,0,0,1,.04,0,.067.067,0,0,0,.035,0,.443.443,0,0,0,.167-.113.58.58,0,0,0,.111-.166l.015-.058a.117.117,0,0,1,.013-.063.472.472,0,0,0,0-.093v-.1a.2.2,0,0,1,0-.038.076.076,0,0,0,0-.035.086.086,0,0,1,0-.043.051.051,0,0,0,0-.038v-.013l-.018-.015a.079.079,0,0,0-.068.02l-.051.043-.086.06a.59.59,0,0,1-.1.053l-.106.038-.108.028h-.328a.091.091,0,0,1-.035,0l-.129-.025a.579.579,0,0,1-.116-.035.86.86,0,0,1-.331-.226,1.355,1.355,0,0,1-.212-.349.426.426,0,0,1-.033-.11.937.937,0,0,0-.03-.113.087.087,0,0,0,0-.038.427.427,0,0,1,0-.083.416.416,0,0,0,0-.083.33.33,0,0,1,0-.045v-.045a.4.4,0,0,1,0-.06.432.432,0,0,1,0-.06v-.045a.114.114,0,0,0,0-.04.053.053,0,0,1,0-.038c0-.03,0-.063,0-.093l.015-.09q.03-.1.061-.181a.818.818,0,0,1,.078-.163.636.636,0,0,1,.055-.088l.063-.083a.32.32,0,0,1,.041-.048l.05-.043.03-.028.045-.035.048-.03a1.055,1.055,0,0,1,.129-.068c.045-.02.1-.035.149-.053a.219.219,0,0,1,.078-.015h.078a.188.188,0,0,1,.053,0h.043a1.035,1.035,0,0,1,.275.028.811.811,0,0,1,.217.1l.028.023.035.025.05.048a.337.337,0,0,0,.058.043h.028a.03.03,0,0,0,.025,0,.045.045,0,0,0,.028-.033.263.263,0,0,1,.015-.048.385.385,0,0,0,.018-.05.079.079,0,0,1,.025-.045.155.155,0,0,1,.068-.023h.422a.118.118,0,0,1,.068.028Zm-.643,1.466a.462.462,0,0,0,.033-.108.867.867,0,0,0,.02-.141,1.446,1.446,0,0,0,0-.146.629.629,0,0,0-.018-.128.083.083,0,0,1,0-.03.061.061,0,0,0,0-.03.65.65,0,0,1-.02-.068.352.352,0,0,0-.025-.06.548.548,0,0,0-.189-.251.616.616,0,0,0-.363-.09.023.023,0,0,1-.025,0h-.033l-.06.018-.058.015a.393.393,0,0,0-.189.158,1,1,0,0,0-.111.233.083.083,0,0,0,0,.038.118.118,0,0,1,0,.038.869.869,0,0,0-.018.151.624.624,0,0,0,0,.163v.048a.722.722,0,0,1,0,.073.422.422,0,0,0,.015.073.829.829,0,0,0,.106.216.437.437,0,0,0,.172.151.951.951,0,0,0,.134.048.153.153,0,0,1,.051,0h.106l.081-.015a.217.217,0,0,0,.076-.023.5.5,0,0,0,.194-.136.665.665,0,0,0,.121-.2Zm3.577-.294a.253.253,0,0,1,0,.085.088.088,0,0,1-.035.063.144.144,0,0,1-.068.025h-1.537a.138.138,0,0,0-.056,0,.114.114,0,0,0-.048.038.087.087,0,0,0-.018.035.089.089,0,0,0,0,.05q0,.026,0,.053a.21.21,0,0,0,0,.055.728.728,0,0,0,.093.188.518.518,0,0,0,.151.131.233.233,0,0,0,.078.03l.083.023a.766.766,0,0,0,.106,0,.423.423,0,0,0,.114,0h.043l.088-.023.078-.025.108-.063a.342.342,0,0,0,.088-.075.628.628,0,0,1,.051-.065.161.161,0,0,1,.063-.045.253.253,0,0,1,.124-.02h.2a.1.1,0,0,1,.056,0h.048a.153.153,0,0,1,.066.023.05.05,0,0,1,.023.043.208.208,0,0,1,0,.058.741.741,0,0,1-.053.118,1.178,1.178,0,0,1-.066.106,1.006,1.006,0,0,1-.24.251,1.209,1.209,0,0,1-.333.161.539.539,0,0,1-.106.025.643.643,0,0,0-.111.018.106.106,0,0,1-.04,0h-.091a.1.1,0,0,1-.055,0h-.121a.136.136,0,0,1-.063,0,.162.162,0,0,0-.053,0h-.053l-.1-.023a.362.362,0,0,1-.1-.035l-.1-.035a.644.644,0,0,1-.083-.04,1.562,1.562,0,0,1-.273-.221,1.113,1.113,0,0,1-.194-.291.453.453,0,0,1-.038-.108.961.961,0,0,0-.038-.11.1.1,0,0,1,0-.038.2.2,0,0,0,0-.035.588.588,0,0,1-.025-.123v-.186a.13.13,0,0,1,0-.053v-.055l.013-.116a1.073,1.073,0,0,1,.033-.156.845.845,0,0,1,.043-.143,1.259,1.259,0,0,1,.7-.7.636.636,0,0,1,.134-.04l.146-.03h.144a1.225,1.225,0,0,1,.417.055,1.3,1.3,0,0,1,.313.153.726.726,0,0,1,.086.065.551.551,0,0,1,.078.073.091.091,0,0,0,.038.038c.025.035.048.07.071.108l.071.11a.453.453,0,0,1,.04.088q.02.045.038.1a.943.943,0,0,1,.038.128.515.515,0,0,0,.033.133.291.291,0,0,1,0,.083.221.221,0,0,0,0,.083v.053Zm-.727-.276a.115.115,0,0,0,0-.115c-.018-.045-.03-.08-.04-.1a.5.5,0,0,0-.177-.2.608.608,0,0,0-.305-.073.043.043,0,0,1-.035,0h-.02a.116.116,0,0,1-.05.013.165.165,0,0,0-.053,0,.5.5,0,0,0-.31.251.321.321,0,0,0-.023.05.269.269,0,0,0-.015.06.121.121,0,0,0,0,.06.076.076,0,0,0,.03.048.2.2,0,0,0,.1.023h.8a.107.107,0,0,0,.1-.04Zm2.524-.982a1.015,1.015,0,0,1,.477.08.7.7,0,0,1,.3.266.5.5,0,0,1,.053.11l.038.123v.07a.277.277,0,0,0,0,.065.127.127,0,0,0,0,.04.774.774,0,0,1,0,.136v1.5a.11.11,0,0,1-.068.108.283.283,0,0,1-.068,0h-.3a.65.65,0,0,1-.1,0,.088.088,0,0,1-.068-.04.147.147,0,0,1-.023-.073v-1.137a3.118,3.118,0,0,0-.015-.324.511.511,0,0,0-.086-.251.355.355,0,0,0-.194-.133.162.162,0,0,0-.05,0,.236.236,0,0,1-.056,0,.215.215,0,0,0-.058,0h-.088a.065.065,0,0,0-.03,0,.506.506,0,0,0-.177.075.452.452,0,0,0-.182.319,3.692,3.692,0,0,0-.028.469v.969a.154.154,0,0,1-.015.07.1.1,0,0,1-.076.063.925.925,0,0,1-.129,0h-.237a.768.768,0,0,1-.106,0,.1.1,0,0,1-.076-.033.192.192,0,0,1-.033-.123v-2.179a.109.109,0,0,1,.028-.07.048.048,0,0,1,.03-.023h.507a.084.084,0,0,1,.045.043.438.438,0,0,1,.023.068.172.172,0,0,1,0,.033.03.03,0,0,0,0,.028.065.065,0,0,0,.015.03l.023.013a.094.094,0,0,0,.086-.035.271.271,0,0,1,.071-.063,1.05,1.05,0,0,1,.288-.153.509.509,0,0,1,.088-.02h.1a.112.112,0,0,1,.043,0Z" transform="translate(-734.2 -546.662)" fill="#f2ece0"/>
    <path id="Caminho_26" data-name="Caminho 26" d="M844.078,590.61h.417a.124.124,0,0,1,.076.023.118.118,0,0,1,.043.08.234.234,0,0,0,0,.045v.838a.29.29,0,0,0,0,.083.164.164,0,0,0,.02.068.056.056,0,0,0,.051.025.033.033,0,0,1,.018,0,.028.028,0,0,0,.02,0l.063-.055a.282.282,0,0,1,.066-.055.7.7,0,0,1,.111-.065,1.138,1.138,0,0,1,.124-.058.073.073,0,0,1,.038,0,.094.094,0,0,0,.043,0,.658.658,0,0,1,.1-.018h.361l.151.05a1.117,1.117,0,0,1,.136.065.5.5,0,0,1,.169.168,1.173,1.173,0,0,1,.109.226l.015.078a.71.71,0,0,0,.018.078.485.485,0,0,1,0,.09.622.622,0,0,0,0,.1v.053a.179.179,0,0,1,0,.083v1.33a.193.193,0,0,1-.033.138.088.088,0,0,1-.076.03h-.343a.889.889,0,0,1-.129,0,.093.093,0,0,1-.078-.058.152.152,0,0,1,0-.07v-1.107a3.3,3.3,0,0,0-.02-.369.422.422,0,0,0-.119-.251.411.411,0,0,0-.164-.1H845.2a.225.225,0,0,0-.05,0,.082.082,0,0,0-.05,0h-.058a.224.224,0,0,0-.061,0,.584.584,0,0,0-.192.088.4.4,0,0,0-.126.176,1.049,1.049,0,0,0-.056.251,2.855,2.855,0,0,0,0,.3v1.009a.2.2,0,0,1-.025.105.083.083,0,0,1-.038.028l-.048.015a.106.106,0,0,1-.063,0h-.285a.7.7,0,0,1-.106,0,.155.155,0,0,1-.071-.025.085.085,0,0,1-.03-.073v-3.14a.229.229,0,0,1,.018-.123.145.145,0,0,1,.078-.048.015.015,0,0,1,.018,0Zm4.927,3.19a.483.483,0,0,1,0,.1.068.068,0,0,1-.051.073.169.169,0,0,1-.066.013h-.419a.1.1,0,0,1-.063-.02.108.108,0,0,1-.051-.055.173.173,0,0,0-.045-.06l-.023-.015a.068.068,0,0,0-.04,0l-.046.023a.249.249,0,0,1-.043.025l-.053.033-.058.028a.559.559,0,0,1-.129.045l-.139.038a.3.3,0,0,1-.063,0h-.174a.2.2,0,0,1-.1,0H847.4a.207.207,0,0,0-.066,0,.114.114,0,0,1-.058,0l-.091-.015a.326.326,0,0,1-.083-.028.821.821,0,0,1-.235-.136.568.568,0,0,1-.156-.218.313.313,0,0,0-.025-.073l-.023-.08a.1.1,0,0,1,0-.048.284.284,0,0,0,0-.048.149.149,0,0,1,0-.06.23.23,0,0,1,0-.063.551.551,0,0,0,0-.08.448.448,0,0,1,.028-.108.55.55,0,0,1,.038-.1.634.634,0,0,1,.187-.208,1.062,1.062,0,0,1,.267-.123.537.537,0,0,1,.129-.033l.134-.025a.447.447,0,0,1,.081,0l.086-.012a.2.2,0,0,1,.066,0,.189.189,0,0,0,.073,0,.3.3,0,0,1,.066,0,.408.408,0,0,0,.073,0c.066-.018.126-.03.182-.04a.323.323,0,0,0,.151-.083.249.249,0,0,0,.058-.1.086.086,0,0,0,0-.025.015.015,0,0,1,0-.018.1.1,0,0,0,0-.03v-.068a.2.2,0,0,1,0-.038.321.321,0,0,0,0-.033.3.3,0,0,0-.2-.2.507.507,0,0,0-.1-.02.665.665,0,0,0-.124,0,.916.916,0,0,0-.119,0l-.1.025a.253.253,0,0,0-.053.025l-.05.035a.5.5,0,0,0-.05.053.177.177,0,0,0-.035.063.911.911,0,0,0-.04.09.1.1,0,0,1-.071.055.271.271,0,0,1-.081,0h-.316a.081.081,0,0,1-.043,0h-.066a.043.043,0,0,1-.025,0,.075.075,0,0,1-.05-.063.079.079,0,0,1,0-.048v-.043a.9.9,0,0,1,.033-.1.316.316,0,0,1,.04-.083l.028-.048a.3.3,0,0,0,.028-.048.7.7,0,0,1,.1-.1l.03-.025.043-.033a.175.175,0,0,1,.043-.028.719.719,0,0,1,.172-.083c.061-.023.121-.043.187-.06a.828.828,0,0,1,.119-.02.705.705,0,0,0,.124-.018h.061a.076.076,0,0,0,.048,0,3.06,3.06,0,0,1,.376.015,1.411,1.411,0,0,1,.326.07.809.809,0,0,1,.253.141.556.556,0,0,1,.161.226.516.516,0,0,1,.038.183v1.456a.675.675,0,0,0,.02.168.125.125,0,0,1,0,.03.121.121,0,0,0,0,.033Zm-.7-.733a.175.175,0,0,0,0-.053.182.182,0,0,0,0-.055.22.22,0,0,1,0-.053.047.047,0,0,0-.02-.038.11.11,0,0,0-.071-.02h-.068a.582.582,0,0,1-.071.015l-.076.013a.106.106,0,0,1-.043,0,.733.733,0,0,1-.126.02.475.475,0,0,0-.119.023l-.071.018-.068.02a.45.45,0,0,0-.169.131.3.3,0,0,0-.051.236.265.265,0,0,0,.053.133.222.222,0,0,0,.1.083.62.62,0,0,0,.146.045.6.6,0,0,0,.167,0,.828.828,0,0,0,.164-.03.416.416,0,0,0,.2-.123.593.593,0,0,0,.108-.206.32.32,0,0,0,.013-.068.432.432,0,0,1,0-.075v-.043Zm2.607-1.589a.352.352,0,0,1,.093,0,.093.093,0,0,1,.063.043.21.21,0,0,1,.03.13v.281a.25.25,0,0,1-.018.105.086.086,0,0,1-.056.043.379.379,0,0,1-.081,0h-.1a.219.219,0,0,0-.091,0,.318.318,0,0,1-.068,0h-.061a.655.655,0,0,0-.154.07.366.366,0,0,0-.119.1l-.05.078c-.018.028-.035.055-.05.083a.332.332,0,0,0-.025.08c-.008.028-.015.053-.023.078a.314.314,0,0,0,0,.068.322.322,0,0,1,0,.07.057.057,0,0,0,0,.035.125.125,0,0,1,0,.03v.075a.15.15,0,0,0,0,.075v.9a.172.172,0,0,1-.03.085.048.048,0,0,1-.03.023h-.068a.192.192,0,0,1-.053,0h-.376l-.048-.015a.053.053,0,0,1-.035-.03.138.138,0,0,1-.02-.07v-2.2a.132.132,0,0,1,.02-.075.1.1,0,0,1,.071-.048.751.751,0,0,1,.114,0H850a.563.563,0,0,1,.1,0,.093.093,0,0,1,.068.045.154.154,0,0,1,.018.068v.083a.49.49,0,0,0,.018.073.043.043,0,0,0,.045.033.029.029,0,0,1,.02,0,.032.032,0,0,0,.018,0,.254.254,0,0,0,.051-.055.282.282,0,0,1,.055-.055.181.181,0,0,0,.033-.03l.033-.03.088-.058.093-.053.1-.033.1-.028a.118.118,0,0,1,.055,0,.1.1,0,0,0,.05,0Zm1.118-.841a.181.181,0,0,1,.033.116v.274a.107.107,0,0,1-.033.09.144.144,0,0,1-.076.028.6.6,0,0,1-.1,0h-.267a.53.53,0,0,1-.093,0,.136.136,0,0,1-.071-.028.089.089,0,0,1-.025-.055.756.756,0,0,1,0-.09v-.191a.642.642,0,0,1,0-.07.121.121,0,0,1,.018-.053.073.073,0,0,1,.025-.03l.035-.018h.487a.112.112,0,0,1,.068.028Zm.033,3.09v.163c0,.045-.033.073-.086.09a.18.18,0,0,1-.063,0h-.421a.1.1,0,0,1-.061-.03.151.151,0,0,1-.03-.083q0-.049,0-.105v-2.1a.143.143,0,0,1,.02-.078.146.146,0,0,1,.081-.043h.025a.033.033,0,0,0,.028,0h.4l.053.015a.046.046,0,0,1,.038.03.118.118,0,0,1,.023.065v2.066Zm2.776.073a.689.689,0,0,1,0,.1.068.068,0,0,1-.048.073.2.2,0,0,1-.068.013h-.417a.1.1,0,0,1-.066-.02.121.121,0,0,1-.05-.055.171.171,0,0,0-.045-.06l-.023-.015a.06.06,0,0,0-.038,0,.193.193,0,0,0-.045.023l-.045.025-.053.033-.058.028a.555.555,0,0,1-.129.045l-.139.038a.3.3,0,0,1-.063,0h-.174a.2.2,0,0,1-.1,0h-.043a.2.2,0,0,0-.066,0,.114.114,0,0,1-.058,0l-.091-.015a.278.278,0,0,1-.081-.028.8.8,0,0,1-.237-.136.562.562,0,0,1-.154-.218.627.627,0,0,1-.028-.073.775.775,0,0,1-.02-.08.08.08,0,0,1,0-.048.311.311,0,0,0,0-.048.413.413,0,0,1,0-.06.23.23,0,0,1,0-.063.588.588,0,0,0,0-.08.451.451,0,0,1,.028-.108.564.564,0,0,1,.038-.1.661.661,0,0,1,.187-.208,1.059,1.059,0,0,1,.267-.123.535.535,0,0,1,.129-.033l.134-.025a.445.445,0,0,1,.081,0l.086-.012a.213.213,0,0,1,.068,0,.179.179,0,0,0,.071,0h.066a.409.409,0,0,0,.073,0c.066-.018.126-.03.184-.04a.315.315,0,0,0,.149-.083.249.249,0,0,0,.058-.1.086.086,0,0,0,0-.025.016.016,0,0,1,0-.018.086.086,0,0,0,0-.03v-.068a.109.109,0,0,1,0-.038.263.263,0,0,0,0-.033.3.3,0,0,0-.2-.2.534.534,0,0,0-.1-.02.654.654,0,0,0-.121,0,.911.911,0,0,0-.121,0,.684.684,0,0,0-.1.025.219.219,0,0,0-.056.025l-.051.035a.536.536,0,0,0-.051.053.178.178,0,0,0-.035.063.9.9,0,0,0-.04.09.091.091,0,0,1-.071.055.271.271,0,0,1-.081,0h-.3a.078.078,0,0,1-.043,0h-.068a.031.031,0,0,1-.023,0c-.028,0-.043-.028-.053-.063a.158.158,0,0,1,0-.048.211.211,0,0,1,0-.043.565.565,0,0,1,.03-.1.428.428,0,0,1,.041-.083.3.3,0,0,0,.028-.048l.03-.048a.561.561,0,0,1,.093-.1l.03-.025.043-.033.043-.028a.712.712,0,0,1,.172-.083c.061-.023.121-.043.187-.06a.877.877,0,0,1,.119-.02.7.7,0,0,0,.124-.018h.061a.089.089,0,0,0,.05,0,3.029,3.029,0,0,1,.374.015,1.416,1.416,0,0,1,.326.07.811.811,0,0,1,.253.141.556.556,0,0,1,.161.226.516.516,0,0,1,.038.183v1.456a.673.673,0,0,0,.02.168.131.131,0,0,1,0,.03.064.064,0,0,0,0,.033Zm-.7-.733a.316.316,0,0,0,0-.053.334.334,0,0,0,0-.055.153.153,0,0,1,0-.053.047.047,0,0,0-.02-.038.108.108,0,0,0-.071-.02h-.068a.508.508,0,0,1-.071.015l-.076.013a.106.106,0,0,1-.043,0,.749.749,0,0,1-.124.02.472.472,0,0,0-.121.023l-.071.018-.068.02a.471.471,0,0,0-.169.131.3.3,0,0,0-.05.236.266.266,0,0,0,.053.133.222.222,0,0,0,.1.083.667.667,0,0,0,.146.045.6.6,0,0,0,.167,0,.827.827,0,0,0,.164-.03.414.414,0,0,0,.2-.123.551.551,0,0,0,.109-.206.314.314,0,0,0,0-.068.431.431,0,0,1,.013-.075v-.043Z" transform="translate(-776.643 -546.677)" fill="#f2ece0"/>
    <path id="Caminho_27" data-name="Caminho 27" d="M896.438,592.736a.251.251,0,0,1,0,.085.088.088,0,0,1-.035.063.146.146,0,0,1-.068.025H894.8a.14.14,0,0,0-.056,0,.112.112,0,0,0-.048.038.1.1,0,0,0-.018.085c0,.018,0,.035,0,.053a.215.215,0,0,0,0,.055.734.734,0,0,0,.094.188.516.516,0,0,0,.151.131.233.233,0,0,0,.078.03l.083.023a.75.75,0,0,0,.106,0,.41.41,0,0,0,.113,0h.043l.088-.023.078-.025.108-.063a.341.341,0,0,0,.088-.075.65.65,0,0,1,.05-.065.161.161,0,0,1,.063-.045.253.253,0,0,1,.121-.02h.2a.105.105,0,0,1,.056,0h.048a.152.152,0,0,1,.066.023.05.05,0,0,1,.023.043.208.208,0,0,1,0,.058,1.057,1.057,0,0,1-.053.118.837.837,0,0,1-.068.105.951.951,0,0,1-.237.251,1.2,1.2,0,0,1-.333.161.533.533,0,0,1-.106.025.641.641,0,0,0-.111.018.107.107,0,0,1-.04,0h-.091a.1.1,0,0,1-.055,0h-.121a.139.139,0,0,1-.063,0,.165.165,0,0,0-.053,0h-.053l-.1-.023a.366.366,0,0,1-.076-.008l-.1-.035a.648.648,0,0,1-.083-.04,1.563,1.563,0,0,1-.273-.221,1.111,1.111,0,0,1-.194-.291.448.448,0,0,1-.038-.108.66.66,0,0,0-.04-.11.216.216,0,0,1,0-.038.188.188,0,0,0,0-.035.458.458,0,0,1-.025-.123v-.186a.181.181,0,0,1,0-.053v-.055l.015-.115a1.065,1.065,0,0,1,.033-.156.851.851,0,0,1,.043-.143,1.259,1.259,0,0,1,.7-.7.637.637,0,0,1,.134-.04l.147-.03h.144a1.222,1.222,0,0,1,.416.055,1.293,1.293,0,0,1,.313.153.969.969,0,0,1,.086.065.421.421,0,0,1,.076.073.117.117,0,0,0,.04.038c.025.035.048.07.071.108l.071.11a.465.465,0,0,1,.04.088l.038.1a.918.918,0,0,1,.038.128.521.521,0,0,0,.033.133.432.432,0,0,1,0,.083.224.224,0,0,0,0,.083v.053Zm-.717-.276a.115.115,0,0,0,0-.115c-.018-.045-.033-.08-.04-.1a.5.5,0,0,0-.177-.2.608.608,0,0,0-.305-.073.043.043,0,0,1-.035,0h-.033a.117.117,0,0,1-.053.013.167.167,0,0,0-.051,0,.5.5,0,0,0-.31.251.322.322,0,0,0-.023.05.26.26,0,0,0-.015.06.117.117,0,0,0,0,.06.075.075,0,0,0,.03.048.2.2,0,0,0,.1.023h.8a.106.106,0,0,0,.1-.04Zm2.65-1.855h2.312a.094.094,0,0,1,.076.038.076.076,0,0,1,0,.033.111.111,0,0,0,.013.038v.053a.677.677,0,0,1,0,.07v.073a.656.656,0,0,0,0,.073.677.677,0,0,1,0,.07.247.247,0,0,0,0,.07.113.113,0,0,1-.048.075.131.131,0,0,1-.073.02h-1.466a.538.538,0,0,0-.094,0,.114.114,0,0,0-.061.02.1.1,0,0,0-.043.07v.51a.078.078,0,0,0,.018.063.075.075,0,0,0,.033.04.129.129,0,0,0,.068.023h1.429a.144.144,0,0,1,.06.018.084.084,0,0,1,.033.058.5.5,0,0,1,0,.093.689.689,0,0,1,0,.1v.156a.137.137,0,0,1,0,.058.1.1,0,0,1-.038.06.144.144,0,0,1-.063.02h-1.315a.414.414,0,0,0-.1,0,.193.193,0,0,0-.078.028.111.111,0,0,0-.043.065.165.165,0,0,0,0,.05v.6a.1.1,0,0,0,.043.068.053.053,0,0,0,.035.018.215.215,0,0,1,.046.013h1.577a.167.167,0,0,1,.063,0,.091.091,0,0,1,.053.053.174.174,0,0,1,.013.058c0,.023,0,.045,0,.07v.326a.088.088,0,0,1-.043.073.122.122,0,0,1-.073.023h-2.365a.1.1,0,0,1-.073-.045.139.139,0,0,1-.018-.075v-3.118a.1.1,0,0,1,.018-.065.116.116,0,0,1,.071-.048.031.031,0,0,1,.02,0,.028.028,0,0,0,.02,0Zm4.291.874a.964.964,0,0,1,.308.038.739.739,0,0,1,.235.118.593.593,0,0,1,.071.068.9.9,0,0,0,.068.075l.03.025a.04.04,0,0,0,.045,0,.206.206,0,0,0,.1-.068.438.438,0,0,1,.091-.083.6.6,0,0,1,.144-.088,1.419,1.419,0,0,1,.172-.07l.093-.015h.114a.831.831,0,0,1,.114,0,.5.5,0,0,1,.1.015h.043a.148.148,0,0,1,.043,0l.129.038a.444.444,0,0,1,.116.053.753.753,0,0,1,.3.362.358.358,0,0,1,.028.088.138.138,0,0,0,.02.088.551.551,0,0,1,0,.06v.105a.191.191,0,0,1,0,.068v1.358a.593.593,0,0,1,0,.1.464.464,0,0,1,0,.085.1.1,0,0,1-.03.055.112.112,0,0,1-.073.025h-.336a.82.82,0,0,1-.119,0,.1.1,0,0,1-.073-.053.176.176,0,0,1,0-.075v-1.182a.345.345,0,0,1,0-.053.168.168,0,0,0,0-.053v-.1q0-.029,0-.058a.2.2,0,0,1,0-.04.259.259,0,0,0,0-.04,1.051,1.051,0,0,0-.041-.125.3.3,0,0,0-.066-.1.369.369,0,0,0-.161-.093.051.051,0,0,0-.033,0h-.078a.167.167,0,0,0-.051,0,.231.231,0,0,1-.058,0h-.058a.381.381,0,0,0-.2.143.564.564,0,0,0-.1.274c0,.108-.015.228-.015.359v1.072a.113.113,0,0,1-.025.075.088.088,0,0,1-.068.04.61.61,0,0,1-.1,0H903a.268.268,0,0,1-.071,0,.1.1,0,0,1-.053-.078.846.846,0,0,1,0-.118v-1.4a.452.452,0,0,0-.063-.2.252.252,0,0,0-.1-.1.745.745,0,0,0-.146-.055.064.064,0,0,0-.038,0h-.043a.172.172,0,0,0-.1,0h-.038a.519.519,0,0,0-.149.083.406.406,0,0,0-.116.13.529.529,0,0,0-.058.166,1.2,1.2,0,0,0-.018.2c0,.073,0,.153,0,.251v1a.184.184,0,0,1-.015.078.093.093,0,0,1-.071.053.856.856,0,0,1-.119,0h-.343a.132.132,0,0,1-.131-.013.1.1,0,0,1-.045-.088q0-.064,0-.135v-2.1a.136.136,0,0,1,.023-.068.121.121,0,0,1,.076-.04h.462a.08.08,0,0,1,.05.048.165.165,0,0,0,.023.075.1.1,0,0,1,0,.028.02.02,0,0,0,0,.02.083.083,0,0,0,0,.023l.018.015a.109.109,0,0,0,.1-.035.382.382,0,0,1,.071-.063,1.38,1.38,0,0,1,.136-.085.728.728,0,0,1,.149-.063.6.6,0,0,1,.086-.02h.091a.113.113,0,0,1,.043,0Zm5.416,1.255a.686.686,0,0,1,0,.085.2.2,0,0,1,0,.08v.063a.5.5,0,0,0-.018.1.3.3,0,0,1-.015.093.143.143,0,0,1-.02.088.357.357,0,0,1-.028.088,1.6,1.6,0,0,1-.068.151.922.922,0,0,1-.076.136.639.639,0,0,1-.058.078l-.071.073-.033.035-.05.043-.05.038a.658.658,0,0,1-.083.05l-.093.045a.414.414,0,0,1-.1.033l-.1.018a.169.169,0,0,1-.061,0,.192.192,0,0,0-.063,0h-.043a.178.178,0,0,1-.073,0h-.048a.113.113,0,0,0-.058,0,.121.121,0,0,1-.06,0l-.146-.043a.441.441,0,0,1-.126-.055.649.649,0,0,1-.061-.043l-.063-.045-.058-.043c-.025-.018-.048-.02-.066,0a.038.038,0,0,0-.023.035.246.246,0,0,1,0,.05.36.36,0,0,0,0,.108v.72a.185.185,0,0,1-.028.1.086.086,0,0,1-.051.03.447.447,0,0,1-.086,0h-.411c-.055-.018-.083-.048-.086-.093s0-.1,0-.163v-2.894a.133.133,0,0,1,.023-.093.091.091,0,0,1,.051-.043.213.213,0,0,1,.06,0h.389a.108.108,0,0,1,.073.025.083.083,0,0,1,.035.058.167.167,0,0,0,.02.075.051.051,0,0,0,0,.02l.018.018a.106.106,0,0,0,.086-.03.442.442,0,0,1,.066-.055.977.977,0,0,1,.129-.078.659.659,0,0,1,.149-.06.411.411,0,0,1,.083-.02h.088a.056.056,0,0,1,.04,0,.052.052,0,0,0,.035,0,1.04,1.04,0,0,1,.462.073,1.073,1.073,0,0,1,.321.216.353.353,0,0,1,.043.045l.038.045a.892.892,0,0,1,.061.085l.05.085a.076.076,0,0,1,0,.025.112.112,0,0,0,0,.033.53.53,0,0,1,.053.113l.02.06.018.063a.651.651,0,0,1,.028.12.3.3,0,0,0,.02.128c.02.045,0,.033,0,.053v.108Zm-.674.111a.43.43,0,0,0,0-.131v-.043a.215.215,0,0,1,0-.06.31.31,0,0,0,0-.068.144.144,0,0,0-.02-.09.341.341,0,0,0-.028-.085.668.668,0,0,0-.149-.251.545.545,0,0,0-.252-.133.3.3,0,0,0-.083,0h-.154l-.066.018a.29.29,0,0,0-.061.02.413.413,0,0,0-.192.161,1.194,1.194,0,0,0-.113.251.688.688,0,0,0-.013.078.7.7,0,0,1-.015.078.337.337,0,0,0,0,.063.087.087,0,0,0,0,.045.169.169,0,0,1,0,.05.1.1,0,0,0,0,.053v.1a.072.072,0,0,0,0,.038.262.262,0,0,0,0,.053v.058a.1.1,0,0,0,.013.058.884.884,0,0,0,.1.223.535.535,0,0,0,.169.156.652.652,0,0,0,.159.06.052.052,0,0,0,.033,0h.033a.172.172,0,0,0,.058,0,.223.223,0,0,0,.061,0l.078-.015a.414.414,0,0,0,.081-.023.485.485,0,0,0,.187-.133.9.9,0,0,0,.119-.2.483.483,0,0,0,.033-.121l.023-.128v-.048a.253.253,0,0,0,0-.045Zm2.489-1.368a.352.352,0,0,1,.093,0,.1.1,0,0,1,.063.043.213.213,0,0,1,.028.131v.281a.213.213,0,0,1-.015.105.093.093,0,0,1-.056.043.371.371,0,0,1-.081,0h-.1a.231.231,0,0,0-.093,0,.3.3,0,0,1-.066,0h-.063a.679.679,0,0,0-.151.07.377.377,0,0,0-.121.1l-.05.078c-.018.028-.033.055-.048.083a.339.339,0,0,0-.028.08c-.008.028-.015.053-.02.078a.216.216,0,0,0,0,.068.207.207,0,0,1,0,.07.086.086,0,0,0,0,.035.06.06,0,0,1,0,.03v.075a.243.243,0,0,0,0,.075.4.4,0,0,1,0,.078v.708a.776.776,0,0,1,0,.113.171.171,0,0,1-.028.085.068.068,0,0,1-.03.023h-.071a.171.171,0,0,1-.053,0h-.376l-.048-.015a.055.055,0,0,1-.033-.03.117.117,0,0,1-.02-.07v-2.2a.133.133,0,0,1,.018-.075.108.108,0,0,1,.073-.048.665.665,0,0,1,.114,0h.252a.57.57,0,0,1,.1,0,.1.1,0,0,1,.068.045.159.159,0,0,1,.015.068v.083a.219.219,0,0,0,.018.073.043.043,0,0,0,.045.033.027.027,0,0,1,.018,0h.02a.367.367,0,0,0,.05-.055.212.212,0,0,1,.053-.055.2.2,0,0,0,.035-.03.184.184,0,0,1,.033-.03l.088-.058.094-.053.1-.033.1-.028a.12.12,0,0,1,.055,0,.1.1,0,0,0,.05,0Z" transform="translate(-814.075 -546.672)" fill="#f2ece0"/>
    <path id="Caminho_28" data-name="Caminho 28" d="M960.438,592.741a.247.247,0,0,1,0,.085.1.1,0,0,1-.033.063.168.168,0,0,1-.071.025H958.8a.12.12,0,0,0-.053,0,.086.086,0,0,0-.048.038.088.088,0,0,0-.02.035.12.12,0,0,0,0,.05.206.206,0,0,1,0,.053.245.245,0,0,0,0,.055.661.661,0,0,0,.094.188.475.475,0,0,0,.149.131.256.256,0,0,0,.078.03l.083.023a.784.784,0,0,0,.106,0,.413.413,0,0,0,.114,0h.043l.088-.023.081-.025.106-.063a.3.3,0,0,0,.088-.075.682.682,0,0,1,.051-.065.153.153,0,0,1,.066-.045.254.254,0,0,1,.121-.02h.194a.1.1,0,0,1,.056,0h.071a.14.14,0,0,1,.066.023c.015,0,.02.02.023.043a.105.105,0,0,1,0,.058.731.731,0,0,1-.053.118.8.8,0,0,1-.066.105.952.952,0,0,1-.252.251,1.205,1.205,0,0,1-.333.161.542.542,0,0,1-.106.025.566.566,0,0,0-.109.018.107.107,0,0,1-.04,0H959.3a.1.1,0,0,1-.056,0h-.121a.137.137,0,0,1-.063,0,.168.168,0,0,0-.053,0,.159.159,0,0,1-.05,0l-.106-.023a.4.4,0,0,1-.1-.008l-.1-.035a.829.829,0,0,1-.083-.04,1.444,1.444,0,0,1-.27-.221,1.06,1.06,0,0,1-.2-.291.937.937,0,0,1-.038-.108.92.92,0,0,0-.038-.11.216.216,0,0,1,0-.038.189.189,0,0,0,0-.035.465.465,0,0,1-.033-.126v-.186a.126.126,0,0,1,0-.053v-.171c.015-.053.025-.105.035-.156a.56.56,0,0,1,.043-.143,1.242,1.242,0,0,1,.7-.7.615.615,0,0,1,.136-.04l.144-.03h.144a1.238,1.238,0,0,1,.419.055,1.261,1.261,0,0,1,.311.153.982.982,0,0,1,.088.065.677.677,0,0,1,.076.073.138.138,0,0,0,.038.038c.025.035.048.07.071.108l.073.11c.015.03.028.058.04.088l.035.1a.929.929,0,0,1,.038.128.513.513,0,0,0,.033.133.222.222,0,0,1,0,.083.219.219,0,0,0,0,.083v.053Zm-.717-.276a.115.115,0,0,0,0-.115c-.018-.045-.03-.08-.041-.1a.5.5,0,0,0-.177-.2.6.6,0,0,0-.305-.073.037.037,0,0,1-.033,0h-.033a.137.137,0,0,1-.053.013.169.169,0,0,0-.053,0,.5.5,0,0,0-.31.251.073.073,0,0,1-.023.05.259.259,0,0,0-.015.06.154.154,0,0,0,0,.06.087.087,0,0,0,.03.048.208.208,0,0,0,.106.023h.8a.106.106,0,0,0,.1-.04Zm3.458.281a.251.251,0,0,1,0,.085.088.088,0,0,1-.035.063.146.146,0,0,1-.068.025h-1.537a.131.131,0,0,0-.055,0,.113.113,0,0,0-.048.038.09.09,0,0,0-.018.035.069.069,0,0,0,0,.05.212.212,0,0,1,0,.053.417.417,0,0,0,0,.055.727.727,0,0,0,.093.188.487.487,0,0,0,.151.131.23.23,0,0,0,.078.03l.083.023a.767.767,0,0,0,.106,0,.417.417,0,0,0,.114,0h.043l.089-.023.078-.025.109-.063a.347.347,0,0,0,.088-.075.589.589,0,0,1,.05-.065.161.161,0,0,1,.063-.045.256.256,0,0,1,.121-.02h.2a.105.105,0,0,1,.055,0h.048a.154.154,0,0,1,.066.023.05.05,0,0,1,.023.043.208.208,0,0,1,0,.058c-.018.043-.035.083-.053.118a1.253,1.253,0,0,1-.068.105.948.948,0,0,1-.237.251,1.228,1.228,0,0,1-.336.161.474.474,0,0,1-.1.025.634.634,0,0,0-.111.018.108.108,0,0,1-.04,0h-.094a.094.094,0,0,1-.053,0h-.123a.134.134,0,0,1-.061,0,.163.163,0,0,0-.053,0,.179.179,0,0,1-.053,0l-.1-.022a.363.363,0,0,1-.1-.035l-.1-.035a.645.645,0,0,1-.083-.04,1.566,1.566,0,0,1-.273-.221,1.109,1.109,0,0,1-.194-.291.635.635,0,0,1-.04-.108.475.475,0,0,0-.038-.11.215.215,0,0,1,0-.038.161.161,0,0,0,0-.035.464.464,0,0,1-.025-.123v-.133a.447.447,0,0,0,0-.053.4.4,0,0,1,0-.053v-.055l.015-.116c.013-.053.023-.105.033-.156a.845.845,0,0,1,.043-.143,1.258,1.258,0,0,1,.7-.7.7.7,0,0,1,.136-.04l.146-.03h.144a1.224,1.224,0,0,1,.416.055,1.345,1.345,0,0,1,.313.153,1.01,1.01,0,0,1,.086.065.528.528,0,0,1,.076.073.135.135,0,0,0,.038.038,1.016,1.016,0,0,1,.073.108l.071.11a.456.456,0,0,1,.041.088c.013.03.023.063.035.1a.686.686,0,0,1,.04.128,1.271,1.271,0,0,0,.033.133.427.427,0,0,1,0,.083.222.222,0,0,0,0,.083v.053Zm-.717-.281a.115.115,0,0,0,0-.115c-.018-.045-.033-.08-.04-.1a.5.5,0,0,0-.177-.2.608.608,0,0,0-.305-.073.043.043,0,0,1-.035,0h-.033a.116.116,0,0,1-.053.013.2.2,0,0,0-.053,0,.5.5,0,0,0-.308.251.336.336,0,0,0-.023.05.553.553,0,0,0-.018.06.158.158,0,0,0,0,.06.078.078,0,0,0,.033.048.2.2,0,0,0,.1.023h.8a.107.107,0,0,0,.1-.04Zm2.524-.981a1.029,1.029,0,0,1,.48.08.7.7,0,0,1,.3.266.491.491,0,0,1,.051.11.5.5,0,0,0,.04.123.356.356,0,0,1,0,.07.488.488,0,0,0,.013.065.117.117,0,0,0,0,.04,1.142,1.142,0,0,1,0,.136v1.5a.108.108,0,0,1-.071.108.261.261,0,0,1-.066,0H965.4a.636.636,0,0,1-.1,0,.1.1,0,0,1-.071-.04.152.152,0,0,1-.02-.073c0-.03,0-.063,0-.1v-1.039a3.169,3.169,0,0,0-.015-.324.542.542,0,0,0-.086-.251.355.355,0,0,0-.194-.133.174.174,0,0,0-.05,0,.243.243,0,0,1-.056,0,.218.218,0,0,0-.06,0h-.088a.056.056,0,0,0-.028,0,.505.505,0,0,0-.177.075.451.451,0,0,0-.182.319,3.679,3.679,0,0,0-.028.469v.969a.151.151,0,0,1-.015.07.1.1,0,0,1-.076.063.9.9,0,0,1-.129,0h-.252a.732.732,0,0,1-.1,0,.1.1,0,0,1-.076-.033.192.192,0,0,1-.033-.123v-2.179a.109.109,0,0,1,.028-.07.047.047,0,0,1,.03-.023h.507a.084.084,0,0,1,.045.043l.023.068a.146.146,0,0,1,0,.033.038.038,0,0,0,0,.028.1.1,0,0,0,.018.03l.023.012a.094.094,0,0,0,.086-.035.273.273,0,0,1,.07-.063,1.078,1.078,0,0,1,.285-.153.647.647,0,0,1,.088-.02h.1a.112.112,0,0,1,.043,0Zm3.834,2.237v.13a.17.17,0,0,1-.028.1.116.116,0,0,1-.063.03.449.449,0,0,1-.086,0h-.351a.107.107,0,0,1-.066-.02.1.1,0,0,1-.038-.063.27.27,0,0,0-.018-.075l-.018-.018-.018-.015a.115.115,0,0,0-.076.023.421.421,0,0,1-.048.048l-.061.04-.063.04-.04.02-.045.018a1.086,1.086,0,0,1-.144.043.1.1,0,0,1-.043,0h-.162a.256.256,0,0,1-.086,0,.252.252,0,0,1-.081-.013h-.06a.111.111,0,0,1-.055,0l-.111-.035a.765.765,0,0,1-.106-.04.817.817,0,0,1-.3-.221,1.306,1.306,0,0,1-.207-.314c-.014-.034-.027-.068-.038-.1a.348.348,0,0,0-.033-.1.085.085,0,0,1,0-.035.093.093,0,0,0,0-.04.68.68,0,0,1-.018-.083l-.038-.068a.047.047,0,0,1,0-.033.154.154,0,0,0,0-.035v-.045a.277.277,0,0,0,0-.043.378.378,0,0,1,0-.055.247.247,0,0,1,0-.05.28.28,0,0,0,0-.045v-.045a.279.279,0,0,0,0-.045.071.071,0,0,1,0-.045l.015-.1a.653.653,0,0,1,.023-.093l.033-.11a.872.872,0,0,1,.038-.105,1.575,1.575,0,0,1,.166-.269.1.1,0,0,1,.028-.028.083.083,0,0,0,.025-.025.322.322,0,0,1,.038-.043l.043-.038a.089.089,0,0,0,.033-.028.117.117,0,0,1,.035-.025,1.071,1.071,0,0,1,.275-.133.316.316,0,0,1,.071-.015h.073a.262.262,0,0,1,.086,0h.207a.577.577,0,0,1,.086,0c.045.018.093.03.136.043a.7.7,0,0,1,.126.053l.06.045.063.045.055.038a.051.051,0,0,0,.068,0,.032.032,0,0,0,.018-.033.16.16,0,0,1,0-.048v-.048a.062.062,0,0,0,0-.033v-.8a.145.145,0,0,1,.023-.1.088.088,0,0,1,.071-.048.02.02,0,0,1,.02,0h.356a.668.668,0,0,1,.106,0,.086.086,0,0,1,.071.038.167.167,0,0,1,.025.1v2.952Zm-.649-.931a.219.219,0,0,0,0-.04.246.246,0,0,1,0-.04v-.1a.389.389,0,0,0-.015-.085.2.2,0,0,0-.015-.1.3.3,0,0,0-.028-.08.62.62,0,0,0-.192-.271.593.593,0,0,0-.366-.1.54.54,0,0,0-.076,0l-.071.018a.227.227,0,0,0-.058.02.42.42,0,0,0-.2.163.918.918,0,0,0-.114.251.436.436,0,0,0-.02.1.738.738,0,0,1-.018.1v.068a.325.325,0,0,0,0,.115.681.681,0,0,0,.013.108v.025a.078.078,0,0,1,0,.023.1.1,0,0,0,.018.07l.015.07a.652.652,0,0,0,.278.366.546.546,0,0,0,.172.068h.058a.1.1,0,0,0,.045,0,.107.107,0,0,0,.05,0l.076-.012a.422.422,0,0,0,.076-.02.521.521,0,0,0,.192-.133.72.72,0,0,0,.124-.2.361.361,0,0,0,.028-.088.941.941,0,0,0,.02-.1.14.14,0,0,0,0-.045.071.071,0,0,1,0-.045.122.122,0,0,0,0-.033v-.085Zm1.817-2.151a.168.168,0,0,1,.035.116v.274a.1.1,0,0,1-.035.09.129.129,0,0,1-.073.028.63.63,0,0,1-.1,0h-.268a.532.532,0,0,1-.094,0,.135.135,0,0,1-.068-.028.076.076,0,0,1-.025-.055.448.448,0,0,1,0-.09.724.724,0,0,1,0-.1v-.09a.677.677,0,0,1,0-.07.12.12,0,0,1,.015-.053.081.081,0,0,1,.028-.03l.035-.018h.487a.106.106,0,0,1,.066.028Zm.035,3.09v.163a.109.109,0,0,1-.086.09.174.174,0,0,1-.063,0h-.422a.1.1,0,0,1-.06-.03.121.121,0,0,1-.03-.083v-2.2a.145.145,0,0,1,.018-.078.168.168,0,0,1,.081-.043h.028a.028.028,0,0,0,.025,0h.4l.053.015a.056.056,0,0,1,.038.03.118.118,0,0,1,.023.065v2.066Z" transform="translate(-861.904 -546.677)" fill="#f2ece0"/>
    <path id="Caminho_29" data-name="Caminho 29" d="M1009.461,592.041a.974.974,0,0,1,.31.038.788.788,0,0,1,.235.118.428.428,0,0,1,.068.068.638.638,0,0,0,.071.075.106.106,0,0,0,.03.025.04.04,0,0,0,.045,0,.206.206,0,0,0,.1-.068.377.377,0,0,1,.088-.083.719.719,0,0,1,.144-.088,1.606,1.606,0,0,1,.172-.07l.093-.015h.116a.861.861,0,0,1,.114,0,.582.582,0,0,1,.1.015h.043a.176.176,0,0,1,.043,0l.129.038a.474.474,0,0,1,.114.053.754.754,0,0,1,.3.362.5.5,0,0,1,.03.088.493.493,0,0,0,.018.088.232.232,0,0,1,0,.06v.105a.571.571,0,0,1,0,.068.674.674,0,0,0,0,.07v1.383a.453.453,0,0,1,0,.085.087.087,0,0,1-.028.055.123.123,0,0,1-.076.025h-.336a.838.838,0,0,1-.119,0,.093.093,0,0,1-.071-.053.184.184,0,0,1-.015-.075v-1.182a.379.379,0,0,1,0-.053.09.09,0,0,0,0-.053v-.093a.229.229,0,0,0,0-.058.2.2,0,0,1,0-.04.22.22,0,0,0,0-.04c-.013-.048-.028-.088-.04-.125a.351.351,0,0,0-.066-.1.385.385,0,0,0-.161-.093.058.058,0,0,0-.035,0h-.078a.17.17,0,0,0-.05,0,.212.212,0,0,1-.056,0,.226.226,0,0,0-.058,0,.372.372,0,0,0-.2.143.518.518,0,0,0-.1.274,3.149,3.149,0,0,0-.018.359v1.072a.112.112,0,0,1-.023.075.1.1,0,0,1-.071.04.621.621,0,0,1-.1,0h-.343a.289.289,0,0,1-.068,0,.1.1,0,0,1-.055-.078.792.792,0,0,1,0-.118v-1.4a.45.45,0,0,0-.063-.2.25.25,0,0,0-.1-.1.784.784,0,0,0-.144-.055.074.074,0,0,0-.04,0h-.043a.165.165,0,0,0-.1,0h-.038a.486.486,0,0,0-.149.083.379.379,0,0,0-.116.131.476.476,0,0,0-.058.166,1.548,1.548,0,0,0-.02.2v1.255a.184.184,0,0,1,0,.078.1.1,0,0,1-.073.053.819.819,0,0,1-.119,0h-.341a.128.128,0,0,1-.073-.02.091.091,0,0,1-.045-.088V592.2a.116.116,0,0,1,.02-.068.13.13,0,0,1,.076-.04h.464a.08.08,0,0,1,.05.048.494.494,0,0,1,.02.075.053.053,0,0,1,0,.028.02.02,0,0,0,0,.02.054.054,0,0,0,0,.023l.015.015a.106.106,0,0,0,.1-.035.392.392,0,0,1,.073-.063,1.091,1.091,0,0,1,.134-.085.792.792,0,0,1,.151-.063.524.524,0,0,1,.086-.02h.091a.113.113,0,0,1,.043,0Zm5.25,1.255a.161.161,0,0,1,0,.085.088.088,0,0,1-.033.063.144.144,0,0,1-.068.025h-1.537a.128.128,0,0,0-.055,0,.113.113,0,0,0-.048.038.088.088,0,0,0-.018.035.071.071,0,0,0,0,.05.207.207,0,0,1,0,.053.417.417,0,0,0,0,.055.727.727,0,0,0,.093.188.457.457,0,0,0,.151.131.23.23,0,0,0,.078.03l.083.023a.75.75,0,0,0,.106,0,.426.426,0,0,0,.114,0h.043l.088-.023.078-.025.109-.063a.389.389,0,0,0,.088-.075l.048-.065a.169.169,0,0,1,.066-.045.253.253,0,0,1,.121-.02h.2a.105.105,0,0,1,.055,0h.046a.154.154,0,0,1,.068.023.046.046,0,0,1,.02.043.143.143,0,0,1,0,.058c-.018.043-.035.083-.053.118a1.212,1.212,0,0,1-.068.105.949.949,0,0,1-.237.251,1.259,1.259,0,0,1-.336.161.485.485,0,0,1-.1.025.594.594,0,0,0-.111.018.11.11,0,0,1-.04,0h-.094a.092.092,0,0,1-.053,0h-.106a.129.129,0,0,1-.061,0,.2.2,0,0,0-.053,0,.169.169,0,0,1-.053,0l-.1-.023a.358.358,0,0,1-.1-.035l-.1-.035a.629.629,0,0,1-.083-.04,1.569,1.569,0,0,1-.273-.221,1.106,1.106,0,0,1-.194-.291.623.623,0,0,1-.04-.108.477.477,0,0,0-.038-.11.2.2,0,0,1,0-.038.087.087,0,0,0,0-.035.455.455,0,0,1-.023-.123v-.133a.421.421,0,0,0,0-.053.363.363,0,0,1,0-.053V593.2l.015-.115a.806.806,0,0,1,.033-.156.844.844,0,0,1,.043-.143,1.24,1.24,0,0,1,.7-.7.7.7,0,0,1,.136-.04l.146-.03h.144a1.223,1.223,0,0,1,.417.055,1.343,1.343,0,0,1,.313.153.94.94,0,0,1,.086.065.705.705,0,0,1,.076.073.131.131,0,0,0,.038.038c.025.035.051.07.073.108l.071.11a.68.68,0,0,1,.04.088.356.356,0,0,0,.035.1.539.539,0,0,1,.038.128.52.52,0,0,0,.035.133.417.417,0,0,1,0,.083.29.29,0,0,0,0,.083v.053Zm-.714-.281a.116.116,0,0,0,0-.116c-.018-.045-.033-.08-.043-.1a.474.474,0,0,0-.174-.2.607.607,0,0,0-.305-.073.044.044,0,0,1-.035,0h-.035a.117.117,0,0,1-.053.012.2.2,0,0,0-.053,0,.5.5,0,0,0-.308.251.333.333,0,0,0-.023.05.52.52,0,0,0-.018.06.161.161,0,0,0,0,.06.079.079,0,0,0,.033.048.2.2,0,0,0,.1.023h.823a.114.114,0,0,0,.1-.04Zm2.524-.982a1.016,1.016,0,0,1,.477.08.694.694,0,0,1,.3.266.618.618,0,0,1,.051.11l.038.123a.261.261,0,0,1,0,.07.265.265,0,0,0,0,.065.123.123,0,0,0,0,.04,1.255,1.255,0,0,1,0,.136v1.5a.108.108,0,0,1-.071.108.246.246,0,0,1-.066,0h-.336a.607.607,0,0,1-.1,0,.1.1,0,0,1-.071-.04.124.124,0,0,1-.02-.073v-1.137a3.186,3.186,0,0,0-.015-.324.546.546,0,0,0-.086-.251.369.369,0,0,0-.194-.133.174.174,0,0,0-.05,0,.229.229,0,0,1-.056,0,.223.223,0,0,0-.061,0h-.088a.059.059,0,0,0-.028,0,.508.508,0,0,0-.177.075.453.453,0,0,0-.182.319,3.737,3.737,0,0,0-.028.47v.969a.155.155,0,0,1-.015.07.1.1,0,0,1-.076.063.905.905,0,0,1-.129,0h-.24a.7.7,0,0,1-.1,0,.109.109,0,0,1-.078-.033.21.21,0,0,1-.03-.123V592.21a.125.125,0,0,1,.025-.07.062.062,0,0,1,.033-.023h.507a.082.082,0,0,1,.046.043l.023.068a.139.139,0,0,1,0,.033.037.037,0,0,0,0,.028.093.093,0,0,0,.018.03l.02.013a.1.1,0,0,0,.088-.035.24.24,0,0,1,.071-.063,1.073,1.073,0,0,1,.285-.153.545.545,0,0,1,.088-.02h.1a.113.113,0,0,1,.043,0Zm1.767-.67h.321a.925.925,0,0,1,.126,0,.093.093,0,0,1,.078.06.127.127,0,0,1,0,.055v.294a.417.417,0,0,1,0,.055.2.2,0,0,0,0,.055v.05a.613.613,0,0,0,0,.07.1.1,0,0,0,.023.053.144.144,0,0,0,.124.045h.225a.168.168,0,0,1,.053,0,.1.1,0,0,1,.061.085,1.185,1.185,0,0,1,0,.138.627.627,0,0,0,0,.068.182.182,0,0,1,0,.055.106.106,0,0,1-.1.08h-.247a.081.081,0,0,1-.033,0,.044.044,0,0,0-.03,0,.092.092,0,0,0-.055.04.381.381,0,0,0-.025.073.182.182,0,0,0,0,.053.19.19,0,0,1,0,.053V593.8a.275.275,0,0,0,.06.153.112.112,0,0,0,.063.04l.083.023h.03a.033.033,0,0,1,.028,0h.053a.5.5,0,0,1,.091,0,.081.081,0,0,1,.061.038.127.127,0,0,1,.02.073v.276a.11.11,0,0,1-.078.11.07.07,0,0,1-.043,0,.07.07,0,0,0-.043,0h-.078a.073.073,0,0,0-.033,0h-.477l-.1-.035a.52.52,0,0,1-.091-.043l-.028-.02-.033-.028-.025-.02-.023-.023a.641.641,0,0,1-.1-.2.048.048,0,0,1,0-.035.116.116,0,0,0,0-.04.07.07,0,0,1,0-.025v-.07a.216.216,0,0,1,0-.043.313.313,0,0,0,0-.048v-1.177a.133.133,0,0,0,0-.063.113.113,0,0,0-.066-.085.278.278,0,0,0-.134-.015.274.274,0,0,1-.139-.013.08.08,0,0,1-.048-.043.126.126,0,0,0-.018-.073v-.1a.967.967,0,0,1,0-.136.1.1,0,0,1,.083-.073h.081a1.136,1.136,0,0,0,.134,0,.1.1,0,0,0,.086-.053.183.183,0,0,0,.015-.078v-.459a.261.261,0,0,1,0-.07.116.116,0,0,1,.071-.063h.028a.039.039,0,0,0,.025,0Zm3.819,1.858a.23.23,0,0,1,0,.08.237.237,0,0,1,0,.08v.048a.37.37,0,0,0,0,.075.269.269,0,0,1,0,.075.3.3,0,0,0-.015.063v.063a.677.677,0,0,1-.033.105.628.628,0,0,1-.038.1,1.04,1.04,0,0,1-.252.369,1.4,1.4,0,0,1-.391.251.718.718,0,0,1-.119.035l-.121.025a.116.116,0,0,1-.053,0h-.19a.254.254,0,0,1-.083,0h-.088a.174.174,0,0,0-.05,0,.086.086,0,0,1-.05,0h-.036a.115.115,0,0,1-.04,0l-.1-.022a.358.358,0,0,1-.091-.028l-.109-.038-.1-.048a1.259,1.259,0,0,1-.288-.233,1.19,1.19,0,0,1-.2-.319.286.286,0,0,1-.035-.09.387.387,0,0,0-.028-.1.156.156,0,0,1,0-.043.135.135,0,0,0,0-.043.286.286,0,0,1,0-.08.415.415,0,0,0,0-.078.276.276,0,0,1,0-.043v-.043a.311.311,0,0,1,0-.08.284.284,0,0,1,.013-.08V593.2a.173.173,0,0,0,0-.05.086.086,0,0,1,0-.05.254.254,0,0,0,0-.045.14.14,0,0,1,0-.045.512.512,0,0,1,.035-.121.657.657,0,0,1,.038-.118,1.167,1.167,0,0,1,.2-.324,1.412,1.412,0,0,1,.293-.251.881.881,0,0,1,.1-.043.925.925,0,0,0,.106-.043.677.677,0,0,1,.129-.033.567.567,0,0,0,.139-.028.349.349,0,0,1,.071,0h.068a1.544,1.544,0,0,1,.48.058,1.24,1.24,0,0,1,.358.171l.109.083a.566.566,0,0,1,.094.1,1.063,1.063,0,0,1,.068.093l.066.1a.467.467,0,0,1,.053.113.409.409,0,0,0,.043.125.654.654,0,0,1,.023.08.137.137,0,0,0,.02.085.177.177,0,0,1,0,.038.193.193,0,0,0,0,.038.077.077,0,0,1,0,.053.123.123,0,0,0,0,.053Zm-.669.171a.251.251,0,0,0,0-.07.234.234,0,0,0,0-.068v-.038a.19.19,0,0,1,0-.053.254.254,0,0,0,0-.053.062.062,0,0,0,0-.028.129.129,0,0,0-.018-.078.476.476,0,0,0-.02-.08,1.06,1.06,0,0,0-.124-.211.528.528,0,0,0-.192-.141l-.058-.015-.061-.018a.426.426,0,0,0-.081,0h-.088a.035.035,0,0,1-.033,0h-.033l-.066.018a.168.168,0,0,0-.053.02.485.485,0,0,0-.194.151.8.8,0,0,0-.116.226.626.626,0,0,0-.023.1l-.015.105a.142.142,0,0,0,0,.048v.073a.273.273,0,0,0,0,.1.4.4,0,0,0,0,.1v.118a.128.128,0,0,0,.015.073,1.115,1.115,0,0,0,.1.231.49.49,0,0,0,.174.158.288.288,0,0,0,.073.038l.083.025h.068a.108.108,0,0,0,.041,0,.073.073,0,0,0,.04,0h.038l.076-.013a.291.291,0,0,0,.071-.02.554.554,0,0,0,.2-.128.711.711,0,0,0,.129-.2.5.5,0,0,0,.028-.1.4.4,0,0,1,.025-.1.187.187,0,0,0,0-.035.082.082,0,0,1,0-.035v-.045a.277.277,0,0,1,0-.045Z" transform="translate(-899.395 -547.24)" fill="#f2ece0"/>
    <path id="Caminho_30" data-name="Caminho 30" d="M1065.868,594.044a1.812,1.812,0,0,1,.621.078.757.757,0,0,1,.4.3.908.908,0,0,1,.061.108.692.692,0,0,1,.045.12.245.245,0,0,1,0,.063.168.168,0,0,1,0,.055.082.082,0,0,1-.053.038.133.133,0,0,1-.058,0h-.343a.118.118,0,0,1-.061,0,.109.109,0,0,1-.073-.038.51.51,0,0,1-.043-.058.548.548,0,0,1-.035-.068.165.165,0,0,0-.05-.06.407.407,0,0,0-.094-.055.541.541,0,0,0-.111-.033.4.4,0,0,0-.1-.015.29.29,0,0,0-.1,0h-.124a.4.4,0,0,0-.131.065.219.219,0,0,0-.068.12.09.09,0,0,0,0,.063c.005.016.011.032.017.048a.31.31,0,0,0,.078.09.55.55,0,0,0,.109.055,1.393,1.393,0,0,0,.2.065l.22.048a.925.925,0,0,1,.219.048,1.492,1.492,0,0,1,.2.063.54.54,0,0,0,.083.03.313.313,0,0,1,.078.038,1.026,1.026,0,0,1,.164.123.5.5,0,0,1,.119.166c0,.023.017.045.023.068s0,.045.02.07,0,.048,0,.088v.115a.15.15,0,0,0,0,.055v.05a.79.79,0,0,1-.106.251.65.65,0,0,1-.185.186,1.29,1.29,0,0,1-.252.123.412.412,0,0,1-.111.033l-.116.025a.548.548,0,0,1-.088,0h-.174a.314.314,0,0,1-.1,0,.3.3,0,0,1-.1,0h-.182a.767.767,0,0,1-.109-.02,2.1,2.1,0,0,1-.331-.12.658.658,0,0,1-.252-.206.934.934,0,0,1-.116-.211.569.569,0,0,1-.018-.075.2.2,0,0,1-.015-.065.166.166,0,0,1,0-.073.088.088,0,0,1,.048-.048.182.182,0,0,1,.058,0h.371a.276.276,0,0,1,.068,0,.106.106,0,0,1,.068.063c0,.028.025.058.041.09a.465.465,0,0,0,.035.06.136.136,0,0,0,.046.048.539.539,0,0,0,.111.075.726.726,0,0,0,.134.048.077.077,0,0,0,.048,0h.046a.254.254,0,0,0,.086,0,.341.341,0,0,0,.078,0h.091a.888.888,0,0,0,.121-.058.283.283,0,0,0,.088-.085.372.372,0,0,0,.038-.118.089.089,0,0,0,0-.063.157.157,0,0,0-.02-.048.236.236,0,0,0-.083-.1.716.716,0,0,0-.116-.06,1.457,1.457,0,0,0-.192-.063c-.066-.015-.134-.033-.2-.053h-.078a.392.392,0,0,1-.078-.015l-.293-.083a.889.889,0,0,1-.252-.12.558.558,0,0,1-.2-.251.193.193,0,0,0-.018-.09.353.353,0,0,1-.015-.08.3.3,0,0,1,0-.085.069.069,0,0,0,0-.043.06.06,0,0,1,0-.04.162.162,0,0,1,.02-.1c.01-.03.021-.059.033-.088a.552.552,0,0,1,.172-.223.945.945,0,0,1,.252-.138.523.523,0,0,1,.111-.035l.119-.028a.216.216,0,0,1,.058,0h.219Z" transform="translate(-941.781 -549.247)" fill="#f2ece0"/>
    <path id="Caminho_31" data-name="Caminho 31" d="M1089.074,486.62v19.173h-4.665V486.62h-3.049v21.085a1.127,1.127,0,0,0,.333.8,1.139,1.139,0,0,0,.806.331h8.486a1.14,1.14,0,0,0,.806-.331,1.126,1.126,0,0,0,.333-.8V486.62Z" transform="translate(-954.136 -468.79)" fill="#020b33" fill-rule="evenodd"/>
    <path id="Caminho_32" data-name="Caminho 32" d="M1033.145,489.582V486.55h-9.624a1.139,1.139,0,0,0-.806.331,1.127,1.127,0,0,0-.333.8v10.359a1.138,1.138,0,0,0,1.138,1.132h6.563v6.566h-7.713v3.037h9.624a1.139,1.139,0,0,0,.806-.331,1.127,1.127,0,0,0,.333-.8V497.273a1.133,1.133,0,0,0-1.139-1.132h-6.578v-6.559Z" transform="translate(-910.035 -468.738)" fill="#020b33" fill-rule="evenodd"/>
    <path id="Caminho_33" data-name="Caminho 33" d="M401.49,109.2h-6.55v3.032h6.55V109.2Z" transform="translate(-295.263 -81.792)" fill="#020b33" fill-rule="evenodd"/>
    <path id="Caminho_34" data-name="Caminho 34" d="M963.47,508.807h3.049V489.63h4.657v19.178h3.047V487.722a1.136,1.136,0,0,0-.871-1.1,1.347,1.347,0,0,0-.268-.03h-8.471a1.139,1.139,0,0,0-.806.331,1.126,1.126,0,0,0-.333.8v21.085Z" transform="translate(-866.002 -468.768)" fill="#020b33" fill-rule="evenodd"/>
    <path id="Caminho_35" data-name="Caminho 35" d="M915.293,492.622v-4.87a1.126,1.126,0,0,0-.333-.8,1.139,1.139,0,0,0-.806-.331H904.53v22.21h9.624a1.139,1.139,0,0,0,.806-.331,1.126,1.126,0,0,0,.333-.8v-11.5h-4.977v3.027h1.928v6.572h-4.665v-16.14h4.667v2.969Z" transform="translate(-821.938 -468.79)" fill="#020b33" fill-rule="evenodd"/>
    <path id="Caminho_36" data-name="Caminho 36" d="M856.353,489.652V486.62h-9.624a1.139,1.139,0,0,0-.806.331,1.126,1.126,0,0,0-.333.8V507.7a1.126,1.126,0,0,0,.333.8,1.139,1.139,0,0,0,.806.331h9.624v-3.037h-7.713v-6.551h7.713v-3.032h-7.713v-6.557Z" transform="translate(-777.875 -468.79)" fill="#020b33" fill-rule="evenodd"/>
    <path id="Caminho_37" data-name="Caminho 37" d="M786.65,508.83H789.7v-5.522l.323-.068a10.474,10.474,0,0,0,3.715-1.546,10.635,10.635,0,0,0,3.677-4.184v-9.757a1.138,1.138,0,0,0-.871-1.1,1.389,1.389,0,0,0-.268-.03h-8.486a1.139,1.139,0,0,0-.806.331,1.126,1.126,0,0,0-.333.8v21.085Zm3.047-8.607v-10.57h4.667v7.1l-.06.1a7.606,7.606,0,0,1-4.074,3.2Z" transform="translate(-733.812 -468.79)" fill="#020b33" fill-rule="evenodd"/>
    <path id="Caminho_38" data-name="Caminho 38" d="M864.571,474.111l1.84-1.506a.285.285,0,0,0,.126-.231c-.015-.108-.134-.143-.222-.166l-2.7-.668-1.343,2.141c-.056.093-.182.238-.124.349a.151.151,0,0,0,.114.073,1.75,1.75,0,0,0,.283,0Z" transform="translate(-790.241 -457.496)" fill="#020b33"/>
  </g>
</svg>
