<svg xmlns="http://www.w3.org/2000/svg" width="184.931" height="66.498" viewBox="0 0 184.931 66.498">
  <g id="logo" transform="translate(0 0)">
    <path id="Caminho_23" data-name="Caminho 23" d="M604.45,434.486l-4.705-2.18a38.436,38.436,0,0,1,4.705-9.325Zm30.543,37.483h3.383v3.364h-3.383ZM604.45,451.724h-6.174a38.782,38.782,0,0,1,.5-16.148l5.669,2.627Zm0,14.957a38.469,38.469,0,0,1-5.412-11.583h5.412Zm0,12.044H584.086V455.088h11.451a41.843,41.843,0,0,0,8.345,16.447c.186.225.375.451.568.673v6.506Zm3.383-33.776,6.671-3.1q.118,1.477.115,2.981a38.382,38.382,0,0,1-6.786,21.846Zm0-21.964a38.37,38.37,0,0,1,6.245,15.34l-6.238,2.893v-18.24Zm0,55.74v-6.513c.193-.222.382-.447.568-.673a41.793,41.793,0,0,0,9.614-26.711,42.819,42.819,0,0,0-.24-4.494l17.208-7.983v36.242h3.383V430.779h0V429.39a1.485,1.485,0,0,0-.693-1.253,1.5,1.5,0,0,0-1.435-.093l-1.265.589-17.729,8.222a41.862,41.862,0,0,0-8.853-18.738h0q-1.079-1.305-2.266-2.526-1.181,1.221-2.263,2.526a41.99,41.99,0,0,0-7.209,12.75q-.568,1.6-1.015,3.26a41.937,41.937,0,0,0-1.38,10.7,42.469,42.469,0,0,0,.575,6.9H582.188a1.5,1.5,0,0,0-1.058.437,1.483,1.483,0,0,0-.437,1.054v25.51H577.31v3.364h64.472v-3.364Z" transform="translate(-577.31 -415.59)" fill="#a8b3bc"/>
    <path id="Caminho_24" data-name="Caminho 24" d="M717.875,496.426v3.724l-10.185,4.71V501.15l10.185-4.71Zm0-7.448V492.7l-10.185,4.71V493.7l10.185-4.71Zm0-7.448v3.724l-10.185,4.71v-3.711l10.185-4.71Z" transform="translate(-663.586 -459.347)" fill="#d99725"/>
    <path id="Caminho_25" data-name="Caminho 25" d="M787.332,590.59h3.1a.126.126,0,0,1,.1.05.07.07,0,0,1,0,.044.149.149,0,0,0,.017.051v.071a.864.864,0,0,1,0,.094v.1a.9.9,0,0,0,0,.1.868.868,0,0,1,0,.094.577.577,0,0,0,0,.094.151.151,0,0,1-.064.1.165.165,0,0,1-.095.027h-1.976a.764.764,0,0,0-.125,0,.153.153,0,0,0-.081.027.135.135,0,0,0-.054.094.792.792,0,0,0,0,.135v.548a.1.1,0,0,0,.024.084.094.094,0,0,0,.047.054.153.153,0,0,0,.088.03h1.918a.194.194,0,0,1,.078.023.1.1,0,0,1,.044.077.494.494,0,0,1,0,.124.929.929,0,0,1,0,.138q0,.066,0,.121v.088a.188.188,0,0,1,0,.077.127.127,0,0,1-.051.081.181.181,0,0,1-.084.027h-1.749a.548.548,0,0,0-.132,0,.228.228,0,0,0-.1.037.171.171,0,0,0-.061.087.387.387,0,0,0,0,.067V594a.826.826,0,0,0,0,.138.128.128,0,0,0,.054.091.078.078,0,0,0,.047.023.21.21,0,0,1,.061.017h2.114a.257.257,0,0,1,.088,0,.108.108,0,0,1,.068.071.238.238,0,0,1,.017.077.849.849,0,0,1,0,.094v.438a.118.118,0,0,1-.058.1.149.149,0,0,1-.1.03h-3.17a.138.138,0,0,1-.1-.06.19.19,0,0,1-.024-.1v-4.172a.135.135,0,0,1,.024-.087.153.153,0,0,1,.1-.064.031.031,0,0,1,.024,0,.038.038,0,0,0,.027,0Zm5.751,1.171a1.359,1.359,0,0,1,.639.108.92.92,0,0,1,.4.357.683.683,0,0,1,.071.148l.051.165a.507.507,0,0,1,0,.094.369.369,0,0,0,.017.087.107.107,0,0,0,0,.054,1.582,1.582,0,0,1,0,.182v2.015a.138.138,0,0,1-.091.145.357.357,0,0,1-.091,0h-.447a.877.877,0,0,1-.139,0,.118.118,0,0,1-.091-.054.169.169,0,0,1-.027-.1v-1.524a4.172,4.172,0,0,0-.02-.434.726.726,0,0,0-.115-.336.5.5,0,0,0-.264-.178.214.214,0,0,0-.068,0,.291.291,0,0,1-.071,0,.3.3,0,0,0-.081,0h-.118a.069.069,0,0,0-.037,0,.64.64,0,0,0-.237.1.581.581,0,0,0-.244.427,4.406,4.406,0,0,0-.037.629v1.3a.2.2,0,0,1-.02.094.135.135,0,0,1-.1.084,1.292,1.292,0,0,1-.173,0h-.281a1.022,1.022,0,0,1-.142,0,.136.136,0,0,1-.1-.044.242.242,0,0,1-.041-.165V592a.145.145,0,0,1,.034-.094.089.089,0,0,1,.041-.03h.683a.111.111,0,0,1,.061.057.573.573,0,0,1,.027.091.067.067,0,0,1,0,.044.079.079,0,0,0,0,.037.123.123,0,0,0,.024.04l.027.017a.126.126,0,0,0,.115-.047.378.378,0,0,1,.1-.084,1.443,1.443,0,0,1,.382-.205.676.676,0,0,1,.118-.027h.132a.144.144,0,0,1,.057,0Zm5.04.121a.121.121,0,0,1,.047.1v2.866a.926.926,0,0,1,0,.1v.283c-.016.06-.029.118-.041.172a.757.757,0,0,1-.051.148,1.2,1.2,0,0,1-.277.4,1.312,1.312,0,0,1-.413.263l-.142.05-.145.037a.7.7,0,0,1-.142.027l-.139.017h-.108a.109.109,0,0,1-.058,0h-.294a.142.142,0,0,1-.054,0,.518.518,0,0,0-.1,0,.425.425,0,0,1-.1,0h-.064a.4.4,0,0,1-.125-.03.7.7,0,0,1-.118-.04,1.764,1.764,0,0,1-.433-.256.923.923,0,0,1-.284-.417.092.092,0,0,1,0-.04.087.087,0,0,0,0-.03.137.137,0,0,1,0-.125.165.165,0,0,1,.1-.054.612.612,0,0,1,.142,0h.477a.213.213,0,0,1,.128.067l.078.111a.424.424,0,0,0,.058.064h0v.02a.736.736,0,0,0,.108.071,1.118,1.118,0,0,0,.128.057h.091a.534.534,0,0,1,.095,0h.071a.255.255,0,0,0,.115,0,.567.567,0,0,0,.108-.02.127.127,0,0,1,.054,0,.091.091,0,0,0,.047,0,.594.594,0,0,0,.223-.151.777.777,0,0,0,.149-.222l.02-.077a.158.158,0,0,1,.017-.084.652.652,0,0,0,0-.124v-.135a.249.249,0,0,1,0-.05.106.106,0,0,0,0-.047.115.115,0,0,1,0-.057.069.069,0,0,0,0-.05v-.017l-.024-.02a.1.1,0,0,0-.091.027l-.068.057-.115.081a.783.783,0,0,1-.129.071l-.142.05-.146.037h-.44a.124.124,0,0,1-.047,0l-.172-.034a.773.773,0,0,1-.156-.047,1.151,1.151,0,0,1-.443-.3,1.821,1.821,0,0,1-.284-.468.574.574,0,0,1-.044-.148,1.246,1.246,0,0,0-.04-.151.115.115,0,0,0,0-.05.544.544,0,0,1,0-.111.571.571,0,0,0,0-.111.457.457,0,0,1,0-.061v-.061a.51.51,0,0,1,0-.081.54.54,0,0,1,0-.081v-.06a.151.151,0,0,0,0-.054.07.07,0,0,1,0-.051v-.124l.02-.121q.041-.131.081-.242a1.1,1.1,0,0,1,.1-.219.876.876,0,0,1,.074-.118l.085-.111a.406.406,0,0,1,.054-.064l.068-.057.041-.037.061-.047.064-.04a1.392,1.392,0,0,1,.173-.091c.061-.027.128-.047.2-.071a.287.287,0,0,1,.1-.02h.1a.243.243,0,0,1,.071,0h.058a1.384,1.384,0,0,1,.369.037,1.094,1.094,0,0,1,.291.128l.037.03.047.034.068.064a.451.451,0,0,0,.078.057h.037a.041.041,0,0,0,.034,0,.06.06,0,0,0,.037-.044.347.347,0,0,1,.02-.064.524.524,0,0,0,.024-.067.107.107,0,0,1,.034-.06.208.208,0,0,1,.091-.03h.565a.159.159,0,0,1,.091.037Zm-.863,1.965a.622.622,0,0,0,.044-.145,1.156,1.156,0,0,0,.027-.188q0-.1,0-.2a.848.848,0,0,0-.024-.172.121.121,0,0,1,0-.04.079.079,0,0,0,0-.04.879.879,0,0,1-.027-.091.448.448,0,0,0-.034-.081.734.734,0,0,0-.254-.336.825.825,0,0,0-.487-.121.031.031,0,0,1-.034,0h-.044l-.081.024-.078.02a.527.527,0,0,0-.254.212,1.349,1.349,0,0,0-.149.313.114.114,0,0,0,0,.05.159.159,0,0,1,0,.05,1.194,1.194,0,0,0-.024.2.846.846,0,0,0,0,.219v.064a.926.926,0,0,1,0,.1.572.572,0,0,0,.02.1,1.109,1.109,0,0,0,.142.289.587.587,0,0,0,.23.2,1.276,1.276,0,0,0,.179.064.2.2,0,0,1,.068,0h.142l.108-.02a.291.291,0,0,0,.1-.03.675.675,0,0,0,.26-.182.9.9,0,0,0,.162-.272Zm4.793-.394a.333.333,0,0,1,0,.114.117.117,0,0,1-.047.084.194.194,0,0,1-.091.034h-2.06a.185.185,0,0,0-.075,0,.154.154,0,0,0-.064.05.121.121,0,0,0-.024.047.119.119,0,0,0,0,.067.681.681,0,0,1,0,.071.283.283,0,0,0,0,.074.983.983,0,0,0,.125.252.691.691,0,0,0,.2.175.311.311,0,0,0,.1.04l.112.03a1.023,1.023,0,0,0,.142,0,.558.558,0,0,0,.152,0h.057l.118-.03.1-.034.145-.084a.456.456,0,0,0,.118-.1.842.842,0,0,1,.068-.087.217.217,0,0,1,.085-.061.339.339,0,0,1,.166-.027h.264a.136.136,0,0,1,.074,0h.064a.2.2,0,0,1,.088.03.068.068,0,0,1,.03.057.274.274,0,0,1,0,.077.982.982,0,0,1-.071.158,1.587,1.587,0,0,1-.088.141,1.35,1.35,0,0,1-.321.336,1.619,1.619,0,0,1-.446.215.724.724,0,0,1-.142.034.855.855,0,0,0-.149.024.145.145,0,0,1-.054,0h-.122a.138.138,0,0,1-.074,0h-.163a.183.183,0,0,1-.084,0,.221.221,0,0,0-.071,0h-.071l-.139-.03a.483.483,0,0,1-.129-.047l-.132-.047a.849.849,0,0,1-.112-.054,2.093,2.093,0,0,1-.366-.3,1.489,1.489,0,0,1-.26-.39.615.615,0,0,1-.051-.145,1.308,1.308,0,0,0-.051-.148.133.133,0,0,1,0-.051.275.275,0,0,0,0-.047.792.792,0,0,1-.034-.165v-.249a.168.168,0,0,1,0-.071v-.074l.017-.155a1.412,1.412,0,0,1,.044-.208,1.137,1.137,0,0,1,.057-.192,1.687,1.687,0,0,1,.937-.935.849.849,0,0,1,.179-.054l.2-.04h.193a1.638,1.638,0,0,1,.558.074,1.738,1.738,0,0,1,.419.205.944.944,0,0,1,.115.088.734.734,0,0,1,.1.1.12.12,0,0,0,.051.051c.034.047.064.094.095.145l.095.148a.615.615,0,0,1,.054.118q.027.061.051.131a1.267,1.267,0,0,1,.051.172.693.693,0,0,0,.044.178.38.38,0,0,1,0,.111.3.3,0,0,0,0,.111v.071Zm-.974-.37a.154.154,0,0,0,0-.155c-.024-.061-.041-.108-.054-.138a.676.676,0,0,0-.237-.262.817.817,0,0,0-.409-.1.058.058,0,0,1-.047,0H800.3a.153.153,0,0,1-.068.017.22.22,0,0,0-.071,0,.676.676,0,0,0-.416.336.423.423,0,0,0-.031.067.357.357,0,0,0-.02.081.162.162,0,0,0,0,.081.1.1,0,0,0,.041.064.272.272,0,0,0,.139.03h1.072a.142.142,0,0,0,.132-.054Zm3.383-1.315a1.362,1.362,0,0,1,.639.108.938.938,0,0,1,.4.357.667.667,0,0,1,.071.148l.051.165v.094a.381.381,0,0,0,0,.087.173.173,0,0,0,0,.054,1.05,1.05,0,0,1,0,.182v2.015a.148.148,0,0,1-.091.145.381.381,0,0,1-.091,0h-.4a.876.876,0,0,1-.139,0,.118.118,0,0,1-.091-.054.2.2,0,0,1-.03-.1v-1.524a4.241,4.241,0,0,0-.02-.434.691.691,0,0,0-.115-.336.477.477,0,0,0-.26-.178.213.213,0,0,0-.068,0,.317.317,0,0,1-.075,0,.281.281,0,0,0-.078,0h-.118a.085.085,0,0,0-.041,0,.677.677,0,0,0-.237.1.6.6,0,0,0-.243.427,4.961,4.961,0,0,0-.037.629v1.3a.2.2,0,0,1-.02.094.135.135,0,0,1-.1.084,1.272,1.272,0,0,1-.173,0h-.318a1.022,1.022,0,0,1-.142,0,.132.132,0,0,1-.1-.044.257.257,0,0,1-.044-.165V592a.147.147,0,0,1,.037-.094.065.065,0,0,1,.041-.03h.68a.112.112,0,0,1,.061.057.571.571,0,0,1,.03.091.21.21,0,0,1,0,.044.04.04,0,0,0,0,.037.087.087,0,0,0,.02.04l.03.017a.126.126,0,0,0,.115-.047.359.359,0,0,1,.095-.084,1.407,1.407,0,0,1,.385-.205.658.658,0,0,1,.118-.027h.128a.154.154,0,0,1,.057,0Z" transform="translate(-716.179 -531.718)" fill="#d99725"/>
    <path id="Caminho_26" data-name="Caminho 26" d="M844.124,590.61h.558a.166.166,0,0,1,.1.03.158.158,0,0,1,.057.108.325.325,0,0,0,0,.061v1.124a.385.385,0,0,0,0,.111.222.222,0,0,0,.027.091.075.075,0,0,0,.068.034.046.046,0,0,1,.024,0,.038.038,0,0,0,.027,0l.085-.074a.377.377,0,0,1,.088-.074.948.948,0,0,1,.149-.088,1.536,1.536,0,0,1,.166-.077.1.1,0,0,1,.051,0,.128.128,0,0,0,.058,0,.883.883,0,0,1,.135-.023h.484l.2.067a1.493,1.493,0,0,1,.183.088.671.671,0,0,1,.227.225,1.567,1.567,0,0,1,.146.3l.02.1a.929.929,0,0,0,.024.1.646.646,0,0,1,0,.121.828.828,0,0,0,0,.128v.071a.239.239,0,0,1,0,.111v1.783a.258.258,0,0,1-.044.185.119.119,0,0,1-.1.04h-.46a1.2,1.2,0,0,1-.173,0,.125.125,0,0,1-.1-.077.207.207,0,0,1,0-.094v-1.484a4.389,4.389,0,0,0-.027-.494.564.564,0,0,0-.159-.336.551.551,0,0,0-.22-.128h-.081a.313.313,0,0,0-.068,0,.109.109,0,0,0-.068,0h-.078a.307.307,0,0,0-.081,0,.785.785,0,0,0-.257.118.531.531,0,0,0-.169.235,1.409,1.409,0,0,0-.074.336,3.777,3.777,0,0,0,0,.4v1.352a.269.269,0,0,1-.034.141.111.111,0,0,1-.051.037l-.064.02a.142.142,0,0,1-.085,0h-.382a.953.953,0,0,1-.142,0,.206.206,0,0,1-.095-.034.114.114,0,0,1-.041-.1v-4.209a.307.307,0,0,1,.024-.165.2.2,0,0,1,.1-.064.02.02,0,0,1,.024,0Zm6.6,4.276a.651.651,0,0,1,0,.138.091.091,0,0,1-.068.1.229.229,0,0,1-.088.017h-.562a.133.133,0,0,1-.084-.027.144.144,0,0,1-.068-.074.232.232,0,0,0-.061-.081l-.03-.02a.091.091,0,0,0-.054,0l-.061.03a.339.339,0,0,1-.057.034l-.071.044-.078.037a.763.763,0,0,1-.172.061l-.186.05a.405.405,0,0,1-.085,0h-.233a.274.274,0,0,1-.128,0h-.058a.272.272,0,0,0-.088,0,.154.154,0,0,1-.078,0l-.122-.02a.442.442,0,0,1-.112-.037,1.1,1.1,0,0,1-.315-.182.76.76,0,0,1-.21-.293.415.415,0,0,0-.034-.1l-.03-.108a.14.14,0,0,1,0-.064.386.386,0,0,0,0-.064.2.2,0,0,1,0-.081.313.313,0,0,1,0-.084.736.736,0,0,0,0-.108.6.6,0,0,1,.037-.145.74.74,0,0,1,.051-.131.849.849,0,0,1,.25-.279,1.421,1.421,0,0,1,.358-.165.719.719,0,0,1,.173-.044l.179-.034a.573.573,0,0,1,.108,0l.115-.017a.266.266,0,0,1,.088,0,.258.258,0,0,0,.1,0,.384.384,0,0,1,.088,0,.549.549,0,0,0,.1,0c.088-.024.169-.041.244-.054a.433.433,0,0,0,.2-.111.338.338,0,0,0,.078-.128.12.12,0,0,0,0-.034.02.02,0,0,1,0-.023.132.132,0,0,0,0-.04v-.091a.259.259,0,0,1,0-.051c0-.015,0-.029,0-.044a.4.4,0,0,0-.271-.263.684.684,0,0,0-.135-.027.905.905,0,0,0-.166,0,1.234,1.234,0,0,0-.159,0l-.135.034a.332.332,0,0,0-.071.034l-.068.047a.692.692,0,0,0-.068.071.237.237,0,0,0-.047.084,1.146,1.146,0,0,0-.054.121.129.129,0,0,1-.095.074.37.37,0,0,1-.108,0h-.423a.109.109,0,0,1-.057,0h-.088a.058.058,0,0,1-.034,0,.1.1,0,0,1-.068-.084.106.106,0,0,1,0-.064v-.057a1.206,1.206,0,0,1,.044-.131.422.422,0,0,1,.054-.111l.037-.064a.4.4,0,0,0,.037-.064.932.932,0,0,1,.129-.131l.04-.034.058-.044a.243.243,0,0,1,.057-.037.968.968,0,0,1,.23-.111c.081-.03.162-.057.25-.081a1.123,1.123,0,0,1,.159-.027.936.936,0,0,0,.166-.024h.081a.1.1,0,0,0,.064,0,4.113,4.113,0,0,1,.5.02,1.883,1.883,0,0,1,.436.094,1.083,1.083,0,0,1,.338.188.744.744,0,0,1,.216.3.691.691,0,0,1,.051.246v1.951a.905.905,0,0,0,.027.225.178.178,0,0,1,0,.04.165.165,0,0,0,0,.044Zm-.94-.982a.235.235,0,0,0,0-.071.243.243,0,0,0,0-.074.3.3,0,0,1,0-.071.063.063,0,0,0-.027-.05.148.148,0,0,0-.095-.027h-.091a.769.769,0,0,1-.095.02l-.1.017a.143.143,0,0,1-.058,0,.982.982,0,0,1-.169.027.63.63,0,0,0-.159.03l-.095.023-.091.027a.606.606,0,0,0-.227.175.4.4,0,0,0-.068.316.356.356,0,0,0,.071.178.3.3,0,0,0,.135.111.831.831,0,0,0,.2.061.8.8,0,0,0,.223,0,1.1,1.1,0,0,0,.22-.04.555.555,0,0,0,.264-.165.794.794,0,0,0,.145-.276.437.437,0,0,0,.017-.091.547.547,0,0,1,0-.1v-.057Zm3.494-2.129a.467.467,0,0,1,.125,0,.125.125,0,0,1,.085.057.281.281,0,0,1,.041.175v.377a.338.338,0,0,1-.023.141.116.116,0,0,1-.075.057.5.5,0,0,1-.108,0H853.2a.292.292,0,0,0-.122,0,.431.431,0,0,1-.091,0H852.9a.876.876,0,0,0-.206.094.488.488,0,0,0-.159.135l-.068.1c-.024.037-.047.074-.068.111a.435.435,0,0,0-.034.108c-.01.037-.02.071-.031.1a.426.426,0,0,0,0,.091.426.426,0,0,1,0,.094.078.078,0,0,0,0,.047.16.16,0,0,1,0,.04v.1a.2.2,0,0,0,0,.1v1.2a.231.231,0,0,1-.04.114.065.065,0,0,1-.041.03h-.091a.261.261,0,0,1-.071,0h-.5l-.064-.02a.07.07,0,0,1-.047-.04.183.183,0,0,1-.027-.094v-2.944a.177.177,0,0,1,.027-.1.139.139,0,0,1,.095-.064.992.992,0,0,1,.152,0h.338a.744.744,0,0,1,.132,0,.125.125,0,0,1,.091.06.207.207,0,0,1,.024.091v.111a.683.683,0,0,0,.024.1.058.058,0,0,0,.061.044.038.038,0,0,1,.027,0,.044.044,0,0,0,.024,0,.341.341,0,0,0,.068-.074.379.379,0,0,1,.074-.074.248.248,0,0,0,.044-.04l.044-.04.118-.077.125-.071.132-.044.135-.037a.16.16,0,0,1,.074,0,.129.129,0,0,0,.068,0Zm1.5-1.127a.242.242,0,0,1,.044.155v.367a.144.144,0,0,1-.044.121.193.193,0,0,1-.1.037.792.792,0,0,1-.128,0h-.359a.7.7,0,0,1-.125,0,.182.182,0,0,1-.095-.037.118.118,0,0,1-.034-.074,1.015,1.015,0,0,1,0-.121v-.256a.837.837,0,0,1,0-.094.162.162,0,0,1,.024-.071.1.1,0,0,1,.034-.04l.047-.024h.653a.149.149,0,0,1,.091.037Zm.044,4.141v.219c0,.061-.044.1-.115.121a.238.238,0,0,1-.085,0h-.565a.132.132,0,0,1-.081-.04.2.2,0,0,1-.041-.111q0-.066,0-.141v-2.812a.191.191,0,0,1,.027-.1.2.2,0,0,1,.108-.057h.034a.044.044,0,0,0,.037,0h.534l.071.02a.061.061,0,0,1,.051.04.158.158,0,0,1,.031.088v2.769Zm3.721.1a.945.945,0,0,1,0,.138.091.091,0,0,1-.064.1.264.264,0,0,1-.091.017h-.558a.138.138,0,0,1-.088-.027.162.162,0,0,1-.068-.074.228.228,0,0,0-.061-.081l-.031-.02a.08.08,0,0,0-.051,0,.261.261,0,0,0-.061.03l-.061.034-.071.044-.078.037a.755.755,0,0,1-.172.061l-.186.05a.4.4,0,0,1-.085,0h-.234a.275.275,0,0,1-.128,0H856.4a.261.261,0,0,0-.088,0,.152.152,0,0,1-.078,0l-.122-.02a.373.373,0,0,1-.108-.037,1.074,1.074,0,0,1-.318-.182.754.754,0,0,1-.206-.293.835.835,0,0,1-.037-.1,1.023,1.023,0,0,1-.027-.108.1.1,0,0,1,0-.064.414.414,0,0,0,0-.064.557.557,0,0,1,0-.081.3.3,0,0,1,0-.084.812.812,0,0,0,0-.108.6.6,0,0,1,.037-.145.754.754,0,0,1,.051-.131.886.886,0,0,1,.25-.279,1.422,1.422,0,0,1,.359-.165.719.719,0,0,1,.173-.044l.179-.034a.572.572,0,0,1,.108,0l.115-.017a.276.276,0,0,1,.091,0,.243.243,0,0,0,.095,0h.088a.55.55,0,0,0,.1,0c.088-.024.169-.041.247-.054a.422.422,0,0,0,.2-.111.335.335,0,0,0,.078-.128.115.115,0,0,0,0-.034.02.02,0,0,1,0-.023.118.118,0,0,0,0-.04v-.091a.141.141,0,0,1,0-.051.372.372,0,0,0,0-.044.408.408,0,0,0-.267-.263.713.713,0,0,0-.139-.027.9.9,0,0,0-.162,0,1.24,1.24,0,0,0-.162,0,.918.918,0,0,0-.132.034.289.289,0,0,0-.074.034l-.068.047a.712.712,0,0,0-.068.071.239.239,0,0,0-.047.084,1.2,1.2,0,0,0-.054.121.122.122,0,0,1-.095.074.369.369,0,0,1-.108,0H855.8a.106.106,0,0,1-.058,0h-.091a.041.041,0,0,1-.031,0c-.037,0-.057-.037-.071-.084a.207.207,0,0,1,0-.064.283.283,0,0,1,0-.057.741.741,0,0,1,.041-.131.566.566,0,0,1,.054-.111.4.4,0,0,0,.037-.064l.041-.064a.756.756,0,0,1,.125-.131l.041-.034.057-.044.058-.037a.953.953,0,0,1,.23-.111c.081-.03.162-.057.25-.081a1.21,1.21,0,0,1,.159-.027.939.939,0,0,0,.166-.024h.081a.118.118,0,0,0,.068,0,4.056,4.056,0,0,1,.5.02,1.883,1.883,0,0,1,.436.094,1.084,1.084,0,0,1,.338.188.744.744,0,0,1,.216.3.693.693,0,0,1,.051.246v1.951a.905.905,0,0,0,.027.225.178.178,0,0,1,0,.04.087.087,0,0,0,0,.044Zm-.941-.982a.427.427,0,0,0,0-.071.454.454,0,0,0,0-.074.2.2,0,0,1,0-.071.064.064,0,0,0-.027-.05.146.146,0,0,0-.095-.027h-.091a.686.686,0,0,1-.095.02l-.1.017a.143.143,0,0,1-.057,0,1.021,1.021,0,0,1-.166.027.629.629,0,0,0-.162.03l-.095.023-.091.027a.631.631,0,0,0-.227.175.405.405,0,0,0-.068.316.356.356,0,0,0,.071.178.3.3,0,0,0,.135.111.892.892,0,0,0,.2.061.814.814,0,0,0,.223,0,1.1,1.1,0,0,0,.22-.04.553.553,0,0,0,.264-.165.739.739,0,0,0,.145-.276.434.434,0,0,0,0-.091.583.583,0,0,1,.017-.1v-.057Z" transform="translate(-753.748 -531.731)" fill="#d99725"/>
    <path id="Caminho_27" data-name="Caminho 27" d="M897.263,593.462a.334.334,0,0,1,0,.114.118.118,0,0,1-.047.084.2.2,0,0,1-.091.034h-2.06a.182.182,0,0,0-.074,0,.15.15,0,0,0-.064.05.114.114,0,0,0-.024.047.116.116,0,0,0,0,.067.681.681,0,0,1,0,.071.3.3,0,0,0,0,.074.982.982,0,0,0,.125.252.694.694,0,0,0,.2.175.311.311,0,0,0,.1.04l.112.03a1.06,1.06,0,0,0,.142,0,.557.557,0,0,0,.152,0h.058l.118-.03.1-.034.145-.084a.459.459,0,0,0,.118-.1.833.833,0,0,1,.068-.087.214.214,0,0,1,.085-.061.338.338,0,0,1,.162-.027h.264a.14.14,0,0,1,.074,0H897a.206.206,0,0,1,.088.03.067.067,0,0,1,.03.057.274.274,0,0,1,0,.077,1.415,1.415,0,0,1-.071.158,1.114,1.114,0,0,1-.091.141,1.27,1.27,0,0,1-.318.336,1.611,1.611,0,0,1-.447.215.72.72,0,0,1-.142.034.855.855,0,0,0-.149.023.141.141,0,0,1-.054,0h-.122a.139.139,0,0,1-.075,0h-.162a.185.185,0,0,1-.084,0,.217.217,0,0,0-.071,0h-.071l-.139-.03a.485.485,0,0,1-.1-.01l-.132-.047a.858.858,0,0,1-.112-.054,2.1,2.1,0,0,1-.365-.3,1.489,1.489,0,0,1-.26-.39.607.607,0,0,1-.051-.145.869.869,0,0,0-.054-.148.279.279,0,0,1,0-.05.265.265,0,0,0,0-.047.613.613,0,0,1-.034-.165v-.249a.248.248,0,0,1,0-.071v-.074l.02-.155a1.427,1.427,0,0,1,.044-.209,1.146,1.146,0,0,1,.057-.192,1.687,1.687,0,0,1,.937-.935.853.853,0,0,1,.179-.054l.2-.04h.193a1.637,1.637,0,0,1,.558.074,1.739,1.739,0,0,1,.42.205,1.3,1.3,0,0,1,.115.088.561.561,0,0,1,.1.1.157.157,0,0,0,.054.051c.034.047.064.094.095.145l.095.148a.617.617,0,0,1,.054.118l.051.131a1.269,1.269,0,0,1,.051.172.7.7,0,0,0,.044.178.562.562,0,0,1,0,.111.3.3,0,0,0,0,.111v.071Zm-.961-.37a.154.154,0,0,0,0-.155c-.024-.06-.044-.108-.054-.138a.676.676,0,0,0-.237-.262.814.814,0,0,0-.409-.1.058.058,0,0,1-.047,0h-.044a.157.157,0,0,1-.071.017.22.22,0,0,0-.068,0,.676.676,0,0,0-.416.336.433.433,0,0,0-.03.067.35.35,0,0,0-.021.081.159.159,0,0,0,0,.081.1.1,0,0,0,.041.064.271.271,0,0,0,.139.03h1.072a.143.143,0,0,0,.132-.054Zm3.552-2.486h3.1a.125.125,0,0,1,.1.05.1.1,0,0,1,0,.044.15.15,0,0,0,.017.051v.071a.933.933,0,0,1,0,.094v.1a.838.838,0,0,0,0,.1.935.935,0,0,1,0,.094.325.325,0,0,0,0,.094.152.152,0,0,1-.064.1.177.177,0,0,1-.1.027h-1.965a.709.709,0,0,0-.125,0,.152.152,0,0,0-.081.027.138.138,0,0,0-.058.094v.683a.1.1,0,0,0,.024.084.1.1,0,0,0,.044.054.174.174,0,0,0,.091.03h1.915a.193.193,0,0,1,.081.024.113.113,0,0,1,.044.077.673.673,0,0,1,0,.124.929.929,0,0,1,0,.138v.209a.186.186,0,0,1,0,.077.127.127,0,0,1-.051.081.193.193,0,0,1-.085.027H900.98a.559.559,0,0,0-.132,0,.261.261,0,0,0-.1.037.148.148,0,0,0-.058.088.222.222,0,0,0,0,.067v.811a.132.132,0,0,0,.058.091.071.071,0,0,0,.047.024.284.284,0,0,1,.061.017h2.114a.224.224,0,0,1,.085,0,.122.122,0,0,1,.071.071.229.229,0,0,1,.017.077c0,.03,0,.061,0,.094v.437a.117.117,0,0,1-.058.1.163.163,0,0,1-.1.03h-3.17a.132.132,0,0,1-.1-.061.187.187,0,0,1-.024-.1v-4.178a.134.134,0,0,1,.024-.088.155.155,0,0,1,.094-.064.041.041,0,0,1,.027,0,.039.039,0,0,0,.027,0Zm5.751,1.171a1.291,1.291,0,0,1,.413.05.987.987,0,0,1,.315.158.8.8,0,0,1,.095.091,1.2,1.2,0,0,0,.091.1l.041.034a.054.054,0,0,0,.061,0,.277.277,0,0,0,.135-.091.583.583,0,0,1,.122-.111.8.8,0,0,1,.193-.118,1.923,1.923,0,0,1,.23-.094l.125-.02h.152a1.111,1.111,0,0,1,.152,0,.68.68,0,0,1,.132.02h.058a.2.2,0,0,1,.057,0l.173.051a.6.6,0,0,1,.156.071,1.01,1.01,0,0,1,.4.485.474.474,0,0,1,.037.118.183.183,0,0,0,.027.118c0,.027,0,.054,0,.081v.141a.264.264,0,0,1,0,.091v1.82a.8.8,0,0,1,0,.128.629.629,0,0,1,0,.114.138.138,0,0,1-.041.074.151.151,0,0,1-.1.034h-.45a1.1,1.1,0,0,1-.159,0,.129.129,0,0,1-.1-.071.243.243,0,0,1,0-.1v-1.584a.487.487,0,0,1,0-.071.221.221,0,0,0,0-.071v-.131a.709.709,0,0,0,0-.077.264.264,0,0,1,0-.054.294.294,0,0,0,0-.054,1.4,1.4,0,0,0-.054-.168.407.407,0,0,0-.088-.131.5.5,0,0,0-.217-.124.068.068,0,0,0-.044,0h-.1a.229.229,0,0,0-.068,0,.307.307,0,0,1-.078,0h-.078a.511.511,0,0,0-.267.192.754.754,0,0,0-.132.367c0,.145-.02.306-.02.481v1.436a.152.152,0,0,1-.034.1.119.119,0,0,1-.091.054.862.862,0,0,1-.139,0h-.457a.372.372,0,0,1-.095,0,.138.138,0,0,1-.071-.1,1.068,1.068,0,0,1,0-.158v-1.877a.605.605,0,0,0-.085-.272.335.335,0,0,0-.128-.135,1,1,0,0,0-.2-.074.086.086,0,0,0-.051,0h-.058a.23.23,0,0,0-.135,0h-.051a.694.694,0,0,0-.2.111.548.548,0,0,0-.156.175.714.714,0,0,0-.078.222,1.611,1.611,0,0,0-.024.269c0,.1,0,.205,0,.336v1.346a.249.249,0,0,1-.02.1.125.125,0,0,1-.095.071,1.154,1.154,0,0,1-.159,0h-.46a.177.177,0,0,1-.176-.017.131.131,0,0,1-.061-.118q0-.086,0-.182v-2.816a.181.181,0,0,1,.03-.091.162.162,0,0,1,.1-.054h.619a.108.108,0,0,1,.068.064.219.219,0,0,0,.031.1.158.158,0,0,1,0,.037.026.026,0,0,0,0,.027.105.105,0,0,0,0,.03l.024.02a.146.146,0,0,0,.129-.047.507.507,0,0,1,.095-.084,1.838,1.838,0,0,1,.183-.114.966.966,0,0,1,.2-.084.8.8,0,0,1,.115-.027h.122a.15.15,0,0,1,.058,0Zm7.259,1.682a.916.916,0,0,1,0,.114.274.274,0,0,1,0,.108v.084a.675.675,0,0,0-.024.135.409.409,0,0,1-.02.125.191.191,0,0,1-.027.118.478.478,0,0,1-.037.118,2.178,2.178,0,0,1-.091.2,1.229,1.229,0,0,1-.1.182.843.843,0,0,1-.078.1l-.095.1-.044.047-.068.057-.068.051a.843.843,0,0,1-.112.067l-.125.061a.551.551,0,0,1-.132.044l-.135.023a.225.225,0,0,1-.081,0,.261.261,0,0,0-.084,0h-.058a.24.24,0,0,1-.1,0h-.064a.153.153,0,0,0-.078,0,.164.164,0,0,1-.081,0l-.2-.057a.589.589,0,0,1-.169-.074.872.872,0,0,1-.081-.057l-.085-.061-.078-.057c-.034-.024-.064-.027-.088,0a.051.051,0,0,0-.031.047.31.31,0,0,1,0,.067.491.491,0,0,0,0,.145v.965a.247.247,0,0,1-.037.128.115.115,0,0,1-.068.04.6.6,0,0,1-.115,0h-.551c-.074-.024-.112-.064-.115-.124s0-.135,0-.219v-3.879a.176.176,0,0,1,.03-.124.12.12,0,0,1,.068-.057.294.294,0,0,1,.081,0h.521a.147.147,0,0,1,.1.034.111.111,0,0,1,.047.077.225.225,0,0,0,.027.1.071.071,0,0,0,0,.027l.024.023a.143.143,0,0,0,.115-.04.592.592,0,0,1,.088-.074,1.3,1.3,0,0,1,.173-.1.881.881,0,0,1,.2-.081.543.543,0,0,1,.112-.027h.118a.075.075,0,0,1,.054,0,.071.071,0,0,0,.047,0,1.394,1.394,0,0,1,.619.1,1.44,1.44,0,0,1,.43.289.476.476,0,0,1,.057.061l.051.061a1.179,1.179,0,0,1,.081.114l.068.114a.1.1,0,0,1,0,.034.154.154,0,0,0,0,.044.707.707,0,0,1,.071.151l.027.081.024.084a.867.867,0,0,1,.037.161.4.4,0,0,0,.027.172c.027.061,0,.044,0,.071v.145Zm-.9.148a.564.564,0,0,0,0-.175v-.057a.288.288,0,0,1,0-.081.411.411,0,0,0,0-.091.2.2,0,0,0-.027-.121.454.454,0,0,0-.037-.114.894.894,0,0,0-.2-.336.729.729,0,0,0-.338-.178.388.388,0,0,0-.112,0h-.206l-.088.023a.382.382,0,0,0-.081.027.554.554,0,0,0-.257.215,1.61,1.61,0,0,0-.152.336.972.972,0,0,0-.017.1,1,1,0,0,1-.02.1.441.441,0,0,0,0,.084.114.114,0,0,0,0,.06.231.231,0,0,1,0,.067.125.125,0,0,0,0,.071v.131a.094.094,0,0,0,0,.051.341.341,0,0,0,0,.071v.077a.136.136,0,0,0,.017.077,1.185,1.185,0,0,0,.139.3.717.717,0,0,0,.227.209.871.871,0,0,0,.213.081.068.068,0,0,0,.044,0h.044a.227.227,0,0,0,.078,0,.3.3,0,0,0,.081,0l.1-.02a.562.562,0,0,0,.108-.03.651.651,0,0,0,.25-.178,1.2,1.2,0,0,0,.159-.266.636.636,0,0,0,.044-.161l.03-.172v-.064a.359.359,0,0,0,0-.061Zm3.335-1.833a.468.468,0,0,1,.125,0,.133.133,0,0,1,.085.057.285.285,0,0,1,.037.175v.377a.286.286,0,0,1-.02.141.125.125,0,0,1-.074.057.5.5,0,0,1-.108,0h-.128a.309.309,0,0,0-.125,0,.4.4,0,0,1-.088,0h-.085a.918.918,0,0,0-.2.094.508.508,0,0,0-.162.135l-.068.1c-.024.037-.044.074-.064.111a.446.446,0,0,0-.037.108c-.01.037-.02.071-.027.1a.287.287,0,0,0,0,.091.283.283,0,0,1,0,.094.114.114,0,0,0,0,.047.082.082,0,0,1,0,.04v.1a.332.332,0,0,0,0,.1.542.542,0,0,1,0,.1v.949a1.063,1.063,0,0,1,0,.151.229.229,0,0,1-.037.114.092.092,0,0,1-.041.03h-.095a.235.235,0,0,1-.071,0h-.5l-.064-.02a.074.074,0,0,1-.044-.04.157.157,0,0,1-.027-.094v-2.944a.18.18,0,0,1,.024-.1.145.145,0,0,1,.1-.064.894.894,0,0,1,.152,0h.338a.783.783,0,0,1,.135,0,.139.139,0,0,1,.091.06.212.212,0,0,1,.02.091v.111a.3.3,0,0,0,.024.1.057.057,0,0,0,.061.044.038.038,0,0,1,.024,0h.027a.476.476,0,0,0,.068-.074.289.289,0,0,1,.071-.074.274.274,0,0,0,.047-.04.248.248,0,0,1,.044-.04l.118-.077.125-.071.129-.044.139-.037a.163.163,0,0,1,.074,0,.135.135,0,0,0,.068,0Z" transform="translate(-786.88 -531.727)" fill="#d99725"/>
    <path id="Caminho_28" data-name="Caminho 28" d="M961.271,593.466a.327.327,0,0,1,0,.114.129.129,0,0,1-.044.084.223.223,0,0,1-.095.034h-2.06a.159.159,0,0,0-.071,0,.18.18,0,0,0-.091.1.153.153,0,0,0,0,.067.3.3,0,0,1,0,.071.289.289,0,0,0,0,.074.879.879,0,0,0,.125.252.636.636,0,0,0,.2.175.336.336,0,0,0,.1.04l.112.03a1.083,1.083,0,0,0,.142,0,.557.557,0,0,0,.152,0h.058l.118-.03.108-.034.142-.084a.406.406,0,0,0,.118-.1.866.866,0,0,1,.068-.088.206.206,0,0,1,.088-.061.339.339,0,0,1,.162-.027h.26a.135.135,0,0,1,.075,0h.095a.188.188,0,0,1,.088.03c.02,0,.027.027.03.057a.14.14,0,0,1,0,.077.972.972,0,0,1-.071.158,1.071,1.071,0,0,1-.088.141,1.284,1.284,0,0,1-.338.336,1.625,1.625,0,0,1-.446.215.73.73,0,0,1-.142.034.767.767,0,0,0-.146.024.147.147,0,0,1-.054,0h-.125a.135.135,0,0,1-.074,0h-.162a.186.186,0,0,1-.085,0,.221.221,0,0,0-.071,0,.213.213,0,0,1-.068,0l-.142-.03a.531.531,0,0,1-.135-.01l-.132-.047a1.181,1.181,0,0,1-.112-.054,1.949,1.949,0,0,1-.362-.3,1.42,1.42,0,0,1-.264-.39,1.26,1.26,0,0,1-.051-.145,1.26,1.26,0,0,0-.051-.148.291.291,0,0,1,0-.051.275.275,0,0,0,0-.047.618.618,0,0,1-.044-.168v-.249a.166.166,0,0,1,0-.071v-.229c.021-.071.034-.141.047-.209a.751.751,0,0,1,.058-.192,1.664,1.664,0,0,1,.934-.935.817.817,0,0,1,.183-.054l.193-.04h.193a1.659,1.659,0,0,1,.561.074,1.7,1.7,0,0,1,.416.205,1.371,1.371,0,0,1,.118.087.916.916,0,0,1,.1.1.184.184,0,0,0,.051.05c.034.047.064.094.095.145l.1.148c.02.04.037.077.054.118l.047.131a1.259,1.259,0,0,1,.051.172.688.688,0,0,0,.044.178.3.3,0,0,1,0,.111.292.292,0,0,0,0,.111v.071Zm-.961-.37a.154.154,0,0,0,0-.155c-.024-.061-.041-.108-.054-.138a.676.676,0,0,0-.237-.262.8.8,0,0,0-.409-.1.051.051,0,0,1-.044,0h-.044a.182.182,0,0,1-.071.017.22.22,0,0,0-.071,0,.676.676,0,0,0-.416.336.1.1,0,0,1-.03.067.35.35,0,0,0-.02.081.217.217,0,0,0,0,.081.118.118,0,0,0,.041.064.278.278,0,0,0,.142.03h1.072a.142.142,0,0,0,.129-.054Zm4.635.377a.34.34,0,0,1,0,.114.118.118,0,0,1-.047.084.2.2,0,0,1-.091.034h-2.06a.176.176,0,0,0-.075,0,.152.152,0,0,0-.064.05.119.119,0,0,0-.024.047.094.094,0,0,0,0,.067.3.3,0,0,1,0,.071.6.6,0,0,0,0,.074.975.975,0,0,0,.125.252.655.655,0,0,0,.2.175.309.309,0,0,0,.1.04l.112.03a1.021,1.021,0,0,0,.142,0,.563.563,0,0,0,.152,0h.057l.119-.03.1-.034.146-.084a.466.466,0,0,0,.118-.1.813.813,0,0,1,.068-.087.215.215,0,0,1,.084-.061.342.342,0,0,1,.163-.027h.264a.14.14,0,0,1,.074,0h.064a.2.2,0,0,1,.088.03.068.068,0,0,1,.031.057.274.274,0,0,1,0,.077c-.024.057-.047.111-.071.158a1.632,1.632,0,0,1-.091.141,1.267,1.267,0,0,1-.318.336,1.642,1.642,0,0,1-.45.215.63.63,0,0,1-.139.034.855.855,0,0,0-.149.024.142.142,0,0,1-.054,0H963.4a.122.122,0,0,1-.071,0h-.166a.174.174,0,0,1-.081,0,.219.219,0,0,0-.071,0,.242.242,0,0,1-.071,0l-.139-.03a.481.481,0,0,1-.129-.047l-.132-.047a.839.839,0,0,1-.112-.054,2.089,2.089,0,0,1-.365-.3,1.489,1.489,0,0,1-.26-.39.856.856,0,0,1-.054-.145A.627.627,0,0,0,961.7,594a.28.28,0,0,1,0-.051.253.253,0,0,0,0-.047.621.621,0,0,1-.034-.165v-.178a.545.545,0,0,0,0-.071.525.525,0,0,1,0-.071v-.074l.02-.155c.017-.071.031-.141.044-.208a1.142,1.142,0,0,1,.058-.192,1.686,1.686,0,0,1,.934-.935.938.938,0,0,1,.183-.054l.2-.04h.193a1.638,1.638,0,0,1,.558.074,1.806,1.806,0,0,1,.419.205,1.325,1.325,0,0,1,.115.088.7.7,0,0,1,.1.1.181.181,0,0,0,.051.051,1.335,1.335,0,0,1,.1.145l.095.148a.6.6,0,0,1,.054.118c.017.04.03.084.047.131a.9.9,0,0,1,.054.172,1.7,1.7,0,0,0,.044.178.582.582,0,0,1,0,.111.3.3,0,0,0,0,.111v.071Zm-.961-.377a.154.154,0,0,0,0-.155c-.023-.061-.044-.108-.054-.138a.675.675,0,0,0-.237-.262.814.814,0,0,0-.409-.1.058.058,0,0,1-.047,0h-.044a.156.156,0,0,1-.071.017.264.264,0,0,0-.071,0,.676.676,0,0,0-.413.336.448.448,0,0,0-.031.067.767.767,0,0,0-.024.081.211.211,0,0,0,0,.081.1.1,0,0,0,.044.064.272.272,0,0,0,.139.03h1.072a.142.142,0,0,0,.132-.054Zm3.383-1.315a1.376,1.376,0,0,1,.643.108.937.937,0,0,1,.4.357.648.648,0,0,1,.068.148.665.665,0,0,0,.054.165.506.506,0,0,1,0,.094.649.649,0,0,0,.017.087.173.173,0,0,0,0,.054,1.479,1.479,0,0,1,0,.182v2.015a.145.145,0,0,1-.095.145.348.348,0,0,1-.088,0h-.446a.85.85,0,0,1-.139,0,.132.132,0,0,1-.095-.054.2.2,0,0,1-.027-.1v-1.524a4.273,4.273,0,0,0-.02-.434.729.729,0,0,0-.115-.336.478.478,0,0,0-.261-.178.237.237,0,0,0-.068,0,.317.317,0,0,1-.075,0,.3.3,0,0,0-.081,0h-.118a.079.079,0,0,0-.037,0,.675.675,0,0,0-.237.1.6.6,0,0,0-.244.427,4.938,4.938,0,0,0-.037.629v1.3a.2.2,0,0,1-.02.094.135.135,0,0,1-.1.084,1.232,1.232,0,0,1-.172,0h-.338a.972.972,0,0,1-.139,0,.132.132,0,0,1-.1-.044.258.258,0,0,1-.044-.165v-2.92a.146.146,0,0,1,.037-.094.064.064,0,0,1,.041-.03h.68a.112.112,0,0,1,.061.057l.03.091a.2.2,0,0,1,0,.044.051.051,0,0,0,0,.037.126.126,0,0,0,.024.04l.03.017a.126.126,0,0,0,.115-.047.365.365,0,0,1,.095-.084,1.449,1.449,0,0,1,.383-.205.882.882,0,0,1,.118-.027h.132a.151.151,0,0,1,.057,0Zm5.138,3v.175a.229.229,0,0,1-.037.135.154.154,0,0,1-.085.04.586.586,0,0,1-.115,0h-.47a.142.142,0,0,1-.088-.027.139.139,0,0,1-.051-.084.366.366,0,0,0-.024-.1l-.024-.023-.024-.02a.153.153,0,0,0-.1.03.572.572,0,0,1-.064.064l-.081.054-.085.054-.054.027-.061.024a1.438,1.438,0,0,1-.193.057.128.128,0,0,1-.057,0h-.216a.347.347,0,0,1-.115,0,.341.341,0,0,1-.108-.017h-.081a.149.149,0,0,1-.074,0l-.149-.047a1.056,1.056,0,0,1-.142-.054,1.1,1.1,0,0,1-.4-.3,1.749,1.749,0,0,1-.278-.42,1.419,1.419,0,0,1-.051-.138.46.46,0,0,0-.044-.138.123.123,0,0,1,0-.047.122.122,0,0,0,0-.054.915.915,0,0,1-.024-.111l-.051-.091a.063.063,0,0,1,0-.044.2.2,0,0,0,0-.047v-.061a.406.406,0,0,0,0-.057.5.5,0,0,1,0-.074.345.345,0,0,1,0-.067.335.335,0,0,0,0-.061v-.06a.346.346,0,0,0,0-.061.1.1,0,0,1,0-.061l.02-.135a.848.848,0,0,1,.03-.124l.044-.148a1.16,1.16,0,0,1,.051-.141,2.1,2.1,0,0,1,.223-.36.127.127,0,0,1,.037-.037.107.107,0,0,0,.034-.034.43.43,0,0,1,.051-.057l.058-.05a.119.119,0,0,0,.044-.037.155.155,0,0,1,.047-.034,1.441,1.441,0,0,1,.369-.178.424.424,0,0,1,.095-.02h.1a.359.359,0,0,1,.115,0h.277a.762.762,0,0,1,.115,0c.061.024.125.04.183.057a.936.936,0,0,1,.169.071l.081.06.085.061.074.05a.068.068,0,0,0,.091,0,.043.043,0,0,0,.024-.044.212.212,0,0,1,0-.064v-.064a.083.083,0,0,0,0-.044v-1.073a.2.2,0,0,1,.031-.128.118.118,0,0,1,.095-.064.027.027,0,0,1,.027,0h.477a.906.906,0,0,1,.142,0,.116.116,0,0,1,.095.05.225.225,0,0,1,.034.131v3.956Zm-.869-1.248a.294.294,0,0,0,0-.054.3.3,0,0,1,0-.054v-.128a.541.541,0,0,0-.02-.114.262.262,0,0,0-.02-.128.408.408,0,0,0-.037-.108.827.827,0,0,0-.257-.363.794.794,0,0,0-.49-.134.685.685,0,0,0-.1,0l-.095.023a.3.3,0,0,0-.078.027.565.565,0,0,0-.271.219,1.231,1.231,0,0,0-.152.336.562.562,0,0,0-.027.128.977.977,0,0,1-.024.131v.091a.436.436,0,0,0,0,.155.9.9,0,0,0,.017.145v.034a.1.1,0,0,1,0,.03.136.136,0,0,0,.024.094l.02.094a.875.875,0,0,0,.372.491.739.739,0,0,0,.23.091h.078a.139.139,0,0,0,.061,0,.144.144,0,0,0,.068,0l.1-.017a.573.573,0,0,0,.1-.027.7.7,0,0,0,.257-.178.962.962,0,0,0,.166-.273.484.484,0,0,0,.037-.118,1.191,1.191,0,0,0,.027-.131.18.18,0,0,0,0-.061.1.1,0,0,1,0-.061.164.164,0,0,0,0-.044v-.114Zm2.436-2.883a.225.225,0,0,1,.047.155v.367a.137.137,0,0,1-.047.121.173.173,0,0,1-.1.037.813.813,0,0,1-.132,0h-.359a.715.715,0,0,1-.125,0,.182.182,0,0,1-.091-.037.1.1,0,0,1-.034-.074.592.592,0,0,1,0-.121.916.916,0,0,1,0-.135v-.121a.867.867,0,0,1,0-.094.155.155,0,0,1,.021-.071.109.109,0,0,1,.037-.04l.047-.024h.653a.142.142,0,0,1,.088.037Zm.047,4.141v.219a.145.145,0,0,1-.115.121.235.235,0,0,1-.085,0h-.565a.132.132,0,0,1-.081-.04.161.161,0,0,1-.041-.111v-2.954a.192.192,0,0,1,.024-.1.223.223,0,0,1,.108-.057h.037a.037.037,0,0,0,.034,0h.538l.071.02a.075.075,0,0,1,.051.04.158.158,0,0,1,.03.087v2.769Z" transform="translate(-829.215 -531.731)" fill="#d99725"/>
    <path id="Caminho_29" data-name="Caminho 29" d="M1009.911,592.273a1.307,1.307,0,0,1,.416.05,1.058,1.058,0,0,1,.314.158.578.578,0,0,1,.092.091.863.863,0,0,0,.095.1.142.142,0,0,0,.04.034.054.054,0,0,0,.061,0,.275.275,0,0,0,.135-.091.5.5,0,0,1,.118-.111.955.955,0,0,1,.193-.118,2.153,2.153,0,0,1,.23-.094l.125-.02h.156a1.2,1.2,0,0,1,.152,0,.791.791,0,0,1,.132.02h.058a.24.24,0,0,1,.057,0l.173.05a.64.64,0,0,1,.152.071,1.01,1.01,0,0,1,.4.485.705.705,0,0,1,.041.118.67.67,0,0,0,.024.118.32.32,0,0,1,0,.081v.141a.751.751,0,0,1,0,.091.932.932,0,0,0,0,.094v1.854a.6.6,0,0,1,0,.114.116.116,0,0,1-.037.074.165.165,0,0,1-.1.034h-.45a1.135,1.135,0,0,1-.159,0,.126.126,0,0,1-.095-.071.246.246,0,0,1-.02-.1V593.86a.487.487,0,0,1,0-.071.121.121,0,0,0,0-.071v-.125a.315.315,0,0,0,0-.077.249.249,0,0,1,0-.054.3.3,0,0,0,0-.054c-.017-.064-.037-.118-.054-.168a.473.473,0,0,0-.088-.131.514.514,0,0,0-.216-.124.079.079,0,0,0-.047,0h-.1a.224.224,0,0,0-.068,0,.29.29,0,0,1-.075,0,.3.3,0,0,0-.078,0,.5.5,0,0,0-.267.192.694.694,0,0,0-.132.367,4.238,4.238,0,0,0-.024.481v1.437a.151.151,0,0,1-.03.1.133.133,0,0,1-.095.054.816.816,0,0,1-.135,0h-.46a.374.374,0,0,1-.091,0,.131.131,0,0,1-.074-.1,1.052,1.052,0,0,1,0-.158v-1.877a.607.607,0,0,0-.085-.272.338.338,0,0,0-.132-.135,1.046,1.046,0,0,0-.193-.074.1.1,0,0,0-.054,0h-.058a.22.22,0,0,0-.132,0h-.051a.652.652,0,0,0-.2.111.507.507,0,0,0-.156.175.642.642,0,0,0-.078.222,2.108,2.108,0,0,0-.027.269v1.682a.248.248,0,0,1,0,.1.128.128,0,0,1-.1.071,1.079,1.079,0,0,1-.159,0h-.456a.17.17,0,0,1-.1-.027.121.121,0,0,1-.061-.118v-3a.154.154,0,0,1,.027-.091.173.173,0,0,1,.1-.054h.622a.107.107,0,0,1,.068.064.72.72,0,0,1,.027.1.072.072,0,0,1,0,.037.027.027,0,0,0,0,.027.065.065,0,0,0,0,.03l.02.02a.142.142,0,0,0,.129-.047.52.52,0,0,1,.1-.084,1.463,1.463,0,0,1,.179-.114,1.07,1.07,0,0,1,.2-.084.694.694,0,0,1,.115-.027h.122a.147.147,0,0,1,.058,0Zm7.036,1.682a.217.217,0,0,1,0,.114.117.117,0,0,1-.044.084.2.2,0,0,1-.091.034h-2.06a.169.169,0,0,0-.074,0,.153.153,0,0,0-.064.05.121.121,0,0,0-.024.047.1.1,0,0,0,0,.067.285.285,0,0,1,0,.071.6.6,0,0,0,0,.074.979.979,0,0,0,.125.252.613.613,0,0,0,.2.175.312.312,0,0,0,.105.04l.112.03a1,1,0,0,0,.142,0,.563.563,0,0,0,.152,0h.058l.118-.03.1-.034.145-.084a.522.522,0,0,0,.118-.1l.064-.087a.226.226,0,0,1,.088-.061.338.338,0,0,1,.162-.027h.264a.139.139,0,0,1,.074,0h.061a.2.2,0,0,1,.091.03.061.061,0,0,1,.027.057.189.189,0,0,1,0,.077c-.024.057-.047.111-.071.158a1.622,1.622,0,0,1-.091.141,1.269,1.269,0,0,1-.318.336,1.689,1.689,0,0,1-.45.215.644.644,0,0,1-.138.034.808.808,0,0,0-.149.024.144.144,0,0,1-.054,0h-.125a.122.122,0,0,1-.071,0h-.142a.172.172,0,0,1-.081,0,.267.267,0,0,0-.071,0,.223.223,0,0,1-.071,0l-.139-.03a.479.479,0,0,1-.129-.047l-.132-.047a.85.85,0,0,1-.112-.054,2.1,2.1,0,0,1-.365-.3,1.484,1.484,0,0,1-.261-.39.838.838,0,0,1-.054-.145.631.631,0,0,0-.051-.148.3.3,0,0,1,0-.05.12.12,0,0,0,0-.047.622.622,0,0,1-.03-.165v-.178a.568.568,0,0,0,0-.071.489.489,0,0,1,0-.071v-.074l.02-.155a1.093,1.093,0,0,1,.044-.209,1.149,1.149,0,0,1,.057-.192,1.663,1.663,0,0,1,.934-.935.936.936,0,0,1,.183-.054l.2-.04h.193a1.637,1.637,0,0,1,.558.074,1.8,1.8,0,0,1,.419.205,1.263,1.263,0,0,1,.115.087.94.94,0,0,1,.1.1.181.181,0,0,0,.051.051c.034.047.068.094.1.145l.095.148a.884.884,0,0,1,.054.118.475.475,0,0,0,.047.131.723.723,0,0,1,.051.172.7.7,0,0,0,.047.178.553.553,0,0,1,0,.111.4.4,0,0,0,0,.111v.071Zm-.957-.377a.154.154,0,0,0,0-.155c-.024-.06-.044-.108-.057-.138a.635.635,0,0,0-.233-.262.815.815,0,0,0-.409-.1.057.057,0,0,1-.047,0h-.047a.156.156,0,0,1-.071.017.277.277,0,0,0-.071,0,.676.676,0,0,0-.413.336.45.45,0,0,0-.03.067.71.71,0,0,0-.024.081.216.216,0,0,0,0,.081.1.1,0,0,0,.044.064.271.271,0,0,0,.139.03h1.1a.153.153,0,0,0,.132-.054Zm3.383-1.315a1.36,1.36,0,0,1,.639.108.929.929,0,0,1,.406.357.823.823,0,0,1,.068.148l.051.165a.347.347,0,0,1,0,.094.362.362,0,0,0,0,.088.173.173,0,0,0,0,.054,1.734,1.734,0,0,1,0,.182v2.015a.145.145,0,0,1-.095.145.336.336,0,0,1-.088,0h-.45a.823.823,0,0,1-.135,0,.132.132,0,0,1-.094-.054.166.166,0,0,1-.027-.1v-1.524a4.255,4.255,0,0,0-.02-.434.726.726,0,0,0-.115-.336.491.491,0,0,0-.26-.178.233.233,0,0,0-.068,0,.311.311,0,0,1-.075,0,.286.286,0,0,0-.081,0h-.118a.077.077,0,0,0-.037,0,.68.68,0,0,0-.237.1.606.606,0,0,0-.243.427,4.949,4.949,0,0,0-.037.629v1.3a.21.21,0,0,1-.02.094.135.135,0,0,1-.1.084,1.232,1.232,0,0,1-.172,0h-.321a.923.923,0,0,1-.139,0,.146.146,0,0,1-.1-.044.28.28,0,0,1-.041-.165V592.5a.168.168,0,0,1,.034-.094.084.084,0,0,1,.044-.03h.68a.112.112,0,0,1,.061.057l.03.091a.2.2,0,0,1,0,.044.05.05,0,0,0,0,.037.129.129,0,0,0,.024.04l.027.017a.133.133,0,0,0,.118-.047.317.317,0,0,1,.095-.084,1.439,1.439,0,0,1,.382-.205.737.737,0,0,1,.119-.027h.132a.15.15,0,0,1,.058,0Zm2.368-.9h.43a1.259,1.259,0,0,1,.169,0,.126.126,0,0,1,.1.081.172.172,0,0,1,0,.074v.394a.576.576,0,0,1,0,.074.259.259,0,0,0,0,.074v.067a.809.809,0,0,0,0,.094.135.135,0,0,0,.03.071.193.193,0,0,0,.166.06h.3a.224.224,0,0,1,.071,0,.134.134,0,0,1,.081.114,1.51,1.51,0,0,1,0,.185.868.868,0,0,0,0,.091.235.235,0,0,1,0,.074.142.142,0,0,1-.135.108h-.332a.107.107,0,0,1-.044,0,.061.061,0,0,0-.04,0,.125.125,0,0,0-.074.054.546.546,0,0,0-.034.1.255.255,0,0,0,0,.071.236.236,0,0,1,0,.071v1.416a.372.372,0,0,0,.081.205.15.15,0,0,0,.085.054l.112.03h.041a.044.044,0,0,1,.037,0h.071a.654.654,0,0,1,.122,0,.108.108,0,0,1,.081.05.169.169,0,0,1,.027.1v.37a.148.148,0,0,1-.1.148.1.1,0,0,1-.057,0,.093.093,0,0,0-.057,0h-.1a.1.1,0,0,0-.044,0h-.639l-.135-.047a.7.7,0,0,1-.122-.057l-.037-.027-.044-.037-.034-.027-.031-.03a.862.862,0,0,1-.135-.266.065.065,0,0,1,0-.047.153.153,0,0,0,0-.054.1.1,0,0,1,0-.034v-.094a.32.32,0,0,1,0-.057.4.4,0,0,0,0-.064v-1.578a.172.172,0,0,0,0-.084.152.152,0,0,0-.088-.114.371.371,0,0,0-.179-.02.368.368,0,0,1-.186-.017.108.108,0,0,1-.064-.057.17.17,0,0,0-.024-.1v-.135a1.289,1.289,0,0,1,0-.182.135.135,0,0,1,.112-.1h.108a1.54,1.54,0,0,0,.179,0,.135.135,0,0,0,.115-.071.244.244,0,0,0,.02-.1v-.616a.348.348,0,0,1,0-.094.155.155,0,0,1,.095-.084h.037a.053.053,0,0,0,.034,0Zm5.118,2.49a.3.3,0,0,1,0,.108.31.31,0,0,1,0,.108v.064a.516.516,0,0,0,0,.1.341.341,0,0,1,0,.1.434.434,0,0,0-.021.084v.084a.9.9,0,0,1-.044.141.842.842,0,0,1-.051.138,1.4,1.4,0,0,1-.338.495,1.88,1.88,0,0,1-.524.336.947.947,0,0,1-.159.047l-.162.034a.155.155,0,0,1-.071,0h-.254a.342.342,0,0,1-.112,0h-.119a.226.226,0,0,0-.068,0,.115.115,0,0,1-.068,0h-.047a.151.151,0,0,1-.054,0l-.129-.03a.47.47,0,0,1-.122-.037l-.146-.05-.135-.064a1.686,1.686,0,0,1-.386-.313,1.581,1.581,0,0,1-.267-.427.381.381,0,0,1-.047-.121.518.518,0,0,0-.037-.131.223.223,0,0,1,0-.057.18.18,0,0,0,0-.057.4.4,0,0,1,0-.108.552.552,0,0,0,0-.1.343.343,0,0,1,0-.057v-.057a.429.429,0,0,1,0-.108.383.383,0,0,1,.017-.108v-.044a.23.23,0,0,0,0-.067.113.113,0,0,1,0-.067.387.387,0,0,0,0-.061.186.186,0,0,1,0-.06.685.685,0,0,1,.047-.161.877.877,0,0,1,.051-.158,1.559,1.559,0,0,1,.274-.434,1.894,1.894,0,0,1,.392-.336,1.185,1.185,0,0,1,.132-.057,1.227,1.227,0,0,0,.142-.057.913.913,0,0,1,.173-.044.756.756,0,0,0,.186-.037.474.474,0,0,1,.095,0h.091a2.066,2.066,0,0,1,.643.077,1.665,1.665,0,0,1,.48.229l.145.111a.771.771,0,0,1,.125.131c.032.04.063.081.091.125l.088.135a.623.623,0,0,1,.071.151.543.543,0,0,0,.057.168.846.846,0,0,1,.03.108.185.185,0,0,0,.027.114.233.233,0,0,1,0,.05.268.268,0,0,0,0,.05.1.1,0,0,1,0,.071.172.172,0,0,0,0,.071Zm-.9.229a.379.379,0,0,0,0-.094.354.354,0,0,0,0-.091v-.05a.229.229,0,0,1,0-.071.428.428,0,0,0,0-.071.094.094,0,0,0,0-.037.168.168,0,0,0-.024-.1.616.616,0,0,0-.027-.108,1.419,1.419,0,0,0-.166-.283.707.707,0,0,0-.257-.188l-.078-.02-.081-.023a.574.574,0,0,0-.108,0h-.118a.048.048,0,0,1-.044,0h-.044l-.088.023a.226.226,0,0,0-.071.027.651.651,0,0,0-.261.2,1.068,1.068,0,0,0-.155.3.823.823,0,0,0-.03.131l-.02.141a.187.187,0,0,0,0,.064v.1a.367.367,0,0,0,0,.135.537.537,0,0,0,0,.131v.158a.17.17,0,0,0,.02.1,1.489,1.489,0,0,0,.139.31.655.655,0,0,0,.233.212.383.383,0,0,0,.1.05l.112.034h.091a.138.138,0,0,0,.054,0,.1.1,0,0,0,.054,0h.051l.1-.017a.39.39,0,0,0,.095-.027.744.744,0,0,0,.271-.172.954.954,0,0,0,.172-.266.674.674,0,0,0,.037-.128.522.522,0,0,1,.034-.135.253.253,0,0,0,0-.047.112.112,0,0,1,0-.047v-.061a.333.333,0,0,1,0-.06Z" transform="translate(-862.4 -532.23)" fill="#d99725"/>
    <path id="Caminho_30" data-name="Caminho 30" d="M1066.22,594.044a2.429,2.429,0,0,1,.832.1,1.014,1.014,0,0,1,.541.4,1.17,1.17,0,0,1,.081.145.908.908,0,0,1,.061.161.313.313,0,0,1,0,.084.221.221,0,0,1,0,.074.108.108,0,0,1-.071.05.177.177,0,0,1-.078,0h-.46a.158.158,0,0,1-.081,0,.146.146,0,0,1-.1-.05.671.671,0,0,1-.057-.077.782.782,0,0,1-.047-.091.215.215,0,0,0-.068-.081.54.54,0,0,0-.125-.074.714.714,0,0,0-.149-.044.537.537,0,0,0-.132-.02.387.387,0,0,0-.132,0h-.166a.533.533,0,0,0-.176.087.292.292,0,0,0-.091.161.118.118,0,0,0,0,.084.663.663,0,0,0,.024.064.411.411,0,0,0,.1.121.741.741,0,0,0,.145.074,1.881,1.881,0,0,0,.264.087l.294.064a1.239,1.239,0,0,1,.294.064,2.016,2.016,0,0,1,.274.084.739.739,0,0,0,.111.04.424.424,0,0,1,.105.05,1.4,1.4,0,0,1,.22.165.674.674,0,0,1,.159.222c0,.03.023.06.03.091s0,.061.027.094,0,.064,0,.118v.155a.215.215,0,0,0,0,.074v.067a1.039,1.039,0,0,1-.142.336.864.864,0,0,1-.247.249,1.707,1.707,0,0,1-.338.165.549.549,0,0,1-.149.044l-.155.034a.725.725,0,0,1-.119,0h-.233a.416.416,0,0,1-.132,0,.41.41,0,0,1-.132,0h-.244a1.043,1.043,0,0,1-.145-.027,2.8,2.8,0,0,1-.443-.161.879.879,0,0,1-.338-.276,1.255,1.255,0,0,1-.156-.283.771.771,0,0,1-.024-.1.26.26,0,0,1-.021-.087.223.223,0,0,1,0-.1.119.119,0,0,1,.064-.064.245.245,0,0,1,.078,0h.5a.357.357,0,0,1,.091,0,.142.142,0,0,1,.091.084c0,.037.034.077.054.121a.583.583,0,0,0,.047.081.182.182,0,0,0,.061.064.725.725,0,0,0,.149.1.989.989,0,0,0,.179.064.105.105,0,0,0,.064,0h.061a.344.344,0,0,0,.115,0,.463.463,0,0,0,.1,0h.122a1.231,1.231,0,0,0,.163-.077.384.384,0,0,0,.118-.114.508.508,0,0,0,.051-.158.119.119,0,0,0,0-.084.221.221,0,0,0-.027-.064.317.317,0,0,0-.112-.135.969.969,0,0,0-.156-.081,1.955,1.955,0,0,0-.257-.084c-.088-.02-.179-.044-.267-.071h-.1a.524.524,0,0,1-.1-.02l-.392-.111a1.2,1.2,0,0,1-.338-.161.748.748,0,0,1-.264-.336.26.26,0,0,0-.024-.121.469.469,0,0,1-.02-.108.391.391,0,0,1,0-.114.092.092,0,0,0,0-.057.08.08,0,0,1,0-.054.216.216,0,0,1,.027-.128q.019-.06.044-.118a.743.743,0,0,1,.23-.3,1.279,1.279,0,0,1,.339-.185.706.706,0,0,1,.149-.047l.159-.037a.292.292,0,0,1,.078,0h.294Z" transform="translate(-899.917 -534.008)" fill="#d99725"/>
    <path id="Caminho_31" data-name="Caminho 31" d="M1091.7,486.62v25.7h-6.251v-25.7h-4.086v28.259a1.51,1.51,0,0,0,.446,1.074,1.526,1.526,0,0,0,1.08.444h11.373a1.528,1.528,0,0,0,1.08-.444,1.509,1.509,0,0,0,.446-1.074V486.62Z" transform="translate(-910.853 -462.725)" fill="#f2ece0" fill-rule="evenodd"/>
    <path id="Caminho_32" data-name="Caminho 32" d="M1036.811,490.614V486.55h-12.9a1.527,1.527,0,0,0-1.08.443,1.51,1.51,0,0,0-.446,1.074v13.884a1.525,1.525,0,0,0,1.526,1.517h8.795v8.8H1022.37v4.071h12.9a1.526,1.526,0,0,0,1.08-.443,1.51,1.51,0,0,0,.446-1.074v-13.9a1.51,1.51,0,0,0-.446-1.074,1.526,1.526,0,0,0-1.08-.443h-8.816v-8.79Z" transform="translate(-871.818 -462.678)" fill="#f2ece0" fill-rule="evenodd"/>
    <path id="Caminho_33" data-name="Caminho 33" d="M403.718,109.2H394.94v4.064h8.778V109.2Z" transform="translate(-261.352 -72.467)" fill="#f2ece0" fill-rule="evenodd"/>
    <path id="Caminho_34" data-name="Caminho 34" d="M963.47,516.366h4.086v-25.7H973.8v25.7h4.083V488.107a1.522,1.522,0,0,0-1.167-1.477,1.8,1.8,0,0,0-.359-.04H965a1.527,1.527,0,0,0-1.08.443,1.51,1.51,0,0,0-.446,1.074v28.259Z" transform="translate(-832.842 -462.705)" fill="#f2ece0" fill-rule="evenodd"/>
    <path id="Caminho_35" data-name="Caminho 35" d="M918.954,494.664v-6.526a1.51,1.51,0,0,0-.446-1.074,1.527,1.527,0,0,0-1.08-.443h-12.9v29.766h12.9a1.527,1.527,0,0,0,1.08-.443,1.51,1.51,0,0,0,.446-1.074V499.451h-6.671v4.057h2.584v8.807h-6.251V490.684h6.255v3.98Z" transform="translate(-793.84 -462.725)" fill="#f2ece0" fill-rule="evenodd"/>
    <path id="Caminho_36" data-name="Caminho 36" d="M860.014,490.684V486.62h-12.9a1.527,1.527,0,0,0-1.08.443,1.51,1.51,0,0,0-.446,1.074v26.731a1.51,1.51,0,0,0,.446,1.074,1.527,1.527,0,0,0,1.08.443h12.9v-4.071H849.676v-8.78h10.338v-4.064H849.676v-8.787Z" transform="translate(-754.838 -462.725)" fill="#f2ece0" fill-rule="evenodd"/>
    <path id="Caminho_37" data-name="Caminho 37" d="M786.65,516.386h4.083v-7.4l.433-.091a14.04,14.04,0,0,0,4.979-2.072,14.254,14.254,0,0,0,4.929-5.608V488.137a1.526,1.526,0,0,0-1.167-1.477,1.858,1.858,0,0,0-.359-.04H788.176a1.527,1.527,0,0,0-1.08.443,1.51,1.51,0,0,0-.446,1.074V516.4Zm4.083-11.536V490.684h6.255v9.52l-.081.128a10.193,10.193,0,0,1-5.46,4.283Z" transform="translate(-715.836 -462.725)" fill="#f2ece0" fill-rule="evenodd"/>
    <path id="Caminho_38" data-name="Caminho 38" d="M865.4,474.985l2.466-2.019a.383.383,0,0,0,.169-.31c-.02-.145-.179-.192-.3-.222l-3.623-.895-1.8,2.87c-.074.124-.244.32-.166.468a.2.2,0,0,0,.152.1,2.351,2.351,0,0,0,.379,0Z" transform="translate(-765.783 -452.718)" fill="#f2ece0"/>
  </g>
</svg>
